<?xml version="1.0" encoding="UTF-8" standalone="no"?>
<!-- Created with Inkscape (http://www.inkscape.org/) -->

<svg
   xmlns:dc="http://purl.org/dc/elements/1.1/"
   xmlns:cc="http://creativecommons.org/ns#"
   xmlns:rdf="http://www.w3.org/1999/02/22-rdf-syntax-ns#"
   xmlns:svg="http://www.w3.org/2000/svg"
   xmlns="http://www.w3.org/2000/svg"
   xmlns:sodipodi="http://sodipodi.sourceforge.net/DTD/sodipodi-0.dtd"
   xmlns:inkscape="http://www.inkscape.org/namespaces/inkscape"
   width="83.710617mm"
   height="75.731133mm"
   viewBox="0 0 296.61242 268.33866"
   id="svg2"
   version="1.1"
   inkscape:version="0.91 r13725"
   sodipodi:docname="sustainablesource.svg"
   inkscape:export-xdpi="299.84503"
   inkscape:export-ydpi="299.84503">
  <defs
     id="defs4" />
  <sodipodi:namedview
     id="base"
     pagecolor="#ffffff"
     bordercolor="#666666"
     borderopacity="1.0"
     inkscape:pageopacity="0.0"
     inkscape:pageshadow="2"
     inkscape:zoom="2.8"
     inkscape:cx="91.162737"
     inkscape:cy="138.26172"
     inkscape:document-units="px"
     inkscape:current-layer="layer1"
     showgrid="false"
     inkscape:window-width="2959"
     inkscape:window-height="1648"
     inkscape:window-x="49"
     inkscape:window-y="0"
     inkscape:window-maximized="1"
     fit-margin-top="0"
     fit-margin-left="0"
     fit-margin-right="0"
     fit-margin-bottom="0" />
  <metadata
     id="metadata7">
    <rdf:RDF>
      <cc:Work
         rdf:about="">
        <dc:format>image/svg+xml</dc:format>
        <dc:type
           rdf:resource="http://purl.org/dc/dcmitype/StillImage" />
        <dc:title />
      </cc:Work>
    </rdf:RDF>
  </metadata>
  <g
     inkscape:label="Layer 1"
     inkscape:groupmode="layer"
     id="layer1"
     transform="translate(-214.12823,-266.81396)">
    <rect
       style="fill:#00002f;fill-opacity:1"
       id="rect3348"
       width="296.61243"
       height="268.33865"
       x="214.12823"
       y="266.81396" />
    <g
       style="font-style:normal;font-weight:normal;font-size:40px;line-height:125%;font-family:sans-serif;letter-spacing:0px;word-spacing:0px;fill:#000000;fill-opacity:1;stroke:none;stroke-width:1px;stroke-linecap:butt;stroke-linejoin:miter;stroke-opacity:1"
       id="text3336"
       transform="translate(-9.9999998,1.1625977e-5)">
      <path
         d="m 272.19031,418.79578 -1.95313,0 -0.0195,-5.87891 q -2.05078,-0.0391 -4.10156,-0.46875 -2.05078,-0.44922 -4.12109,-1.32812 l 0,-3.51563 q 1.99218,1.25 4.02343,1.89453 2.05078,0.625 4.21875,0.64453 l 0,-8.90625 q -4.3164,-0.70312 -6.28906,-2.38281 -1.95312,-1.67969 -1.95312,-4.60937 0,-3.1836 2.1289,-5.01954 2.12891,-1.83593 6.11328,-2.10937 l 0,-4.58984 1.95313,0 0,4.53125 q 1.8164,0.0781 3.51562,0.39062 1.69922,0.29297 3.32032,0.82031 l 0,3.41797 q -1.6211,-0.82031 -3.33985,-1.26953 -1.69922,-0.44922 -3.49609,-0.52734 l 0,8.33984 q 4.43359,0.68359 6.52344,2.44141 2.08984,1.75781 2.08984,4.80468 0,3.30079 -2.22656,5.21485 -2.20703,1.89453 -6.38672,2.1875 l 0,5.91797 z m -1.95313,-20.91797 0,-8.00781 q -2.26562,0.2539 -3.45703,1.28906 -1.1914,1.03515 -1.1914,2.7539 0,1.67969 1.09375,2.61719 1.11328,0.9375 3.55468,1.34766 z m 1.95313,3.75 0,8.45703 q 2.48047,-0.33203 3.73047,-1.40625 1.26953,-1.07422 1.26953,-2.83203 0,-1.71875 -1.21094,-2.73438 -1.19141,-1.01562 -3.78906,-1.48437 z"
         style="font-style:normal;font-variant:normal;font-weight:normal;font-stretch:normal;font-size:40px;line-height:125%;font-family:'Bitstream Vera Sans';-inkscape-font-specification:'Bitstream Vera Sans, Normal';text-align:start;writing-mode:lr-tb;text-anchor:start;fill:#00ff00"
         id="path3340"
         inkscape:connector-curvature="0" />
      <path
         d="m 304.59265,416.62781 0,2.8125 -1.21094,0 q -4.86328,0 -6.52343,-1.44531 -1.64063,-1.44532 -1.64063,-5.76172 l 0,-4.66797 q 0,-2.94922 -1.05469,-4.08203 -1.05468,-1.13282 -3.82812,-1.13282 l -1.19141,0 0,-2.79296 1.19141,0 q 2.79297,0 3.82812,-1.11329 1.05469,-1.13281 1.05469,-4.04296 l 0,-4.6875 q 0,-4.31641 1.64063,-5.74219 1.66015,-1.44531 6.52343,-1.44531 l 1.21094,0 0,2.79296 -1.32812,0 q -2.75391,0 -3.59375,0.85938 -0.83985,0.85937 -0.83985,3.61328 l 0,4.84375 q 0,3.06641 -0.89843,4.45313 -0.87891,1.38671 -3.02735,1.875 2.16797,0.52734 3.04688,1.91406 0.8789,1.38672 0.8789,4.43359 l 0,4.84375 q 0,2.75391 0.83985,3.61328 0.83984,0.85938 3.59375,0.85938 l 1.32812,0 z"
         style="font-style:normal;font-variant:normal;font-weight:normal;font-stretch:normal;font-size:40px;line-height:125%;font-family:'Bitstream Vera Sans';-inkscape-font-specification:'Bitstream Vera Sans, Normal';text-align:start;writing-mode:lr-tb;text-anchor:start;fill:#00ff00"
         id="path3342"
         inkscape:connector-curvature="0" />
      <path
         d="m 327.2489,391.6864 0,3.39844 q -1.52344,-0.78125 -3.16406,-1.17188 -1.64063,-0.39062 -3.39844,-0.39062 -2.67578,0 -4.02344,0.82031 -1.32812,0.82031 -1.32812,2.46094 0,1.25 0.95703,1.97266 0.95703,0.70312 3.84766,1.34765 l 1.23047,0.27344 q 3.82812,0.82031 5.42968,2.32422 1.6211,1.48437 1.6211,4.16015 0,3.04688 -2.42188,4.82422 -2.40234,1.77735 -6.62109,1.77735 -1.75781,0 -3.67188,-0.35157 -1.89453,-0.33203 -4.0039,-1.01562 l 0,-3.71094 q 1.99218,1.03516 3.92578,1.5625 1.93359,0.50781 3.82812,0.50781 2.53907,0 3.90625,-0.85937 1.36719,-0.87891 1.36719,-2.46094 0,-1.46484 -0.99609,-2.24609 -0.97657,-0.78125 -4.31641,-1.50391 l -1.25,-0.29297 q -3.33984,-0.70312 -4.82422,-2.14843 -1.48437,-1.46485 -1.48437,-4.00391 0,-3.08594 2.1875,-4.76563 2.1875,-1.67968 6.21093,-1.67968 1.99219,0 3.75,0.29297 1.75782,0.29296 3.24219,0.8789 z"
         style="font-style:normal;font-variant:normal;font-weight:normal;font-stretch:normal;font-size:40px;line-height:125%;font-family:'Bitstream Vera Sans';-inkscape-font-specification:'Bitstream Vera Sans, Normal';text-align:start;writing-mode:lr-tb;text-anchor:start;fill:#ffffff"
         id="path3344"
         inkscape:connector-curvature="0" />
      <path
         d="m 342.63953,393.5614 q -2.89063,0 -4.57032,2.26563 -1.67968,2.24609 -1.67968,6.17187 0,3.92578 1.66015,6.19141 1.67969,2.24609 4.58985,2.24609 2.87109,0 4.55078,-2.26562 1.67969,-2.26563 1.67969,-6.17188 0,-3.88672 -1.67969,-6.15234 -1.67969,-2.28516 -4.55078,-2.28516 z m 0,-3.04687 q 4.6875,0 7.36328,3.04687 2.67578,3.04688 2.67578,8.4375 0,5.3711 -2.67578,8.4375 -2.67578,3.04688 -7.36328,3.04688 -4.70703,0 -7.38282,-3.04688 -2.65625,-3.0664 -2.65625,-8.4375 0,-5.39062 2.65625,-8.4375 2.67579,-3.04687 7.38282,-3.04687 z"
         style="font-style:normal;font-variant:normal;font-weight:normal;font-stretch:normal;font-size:40px;line-height:125%;font-family:'Bitstream Vera Sans';-inkscape-font-specification:'Bitstream Vera Sans, Normal';text-align:start;writing-mode:lr-tb;text-anchor:start;fill:#ffffff"
         id="path3346"
         inkscape:connector-curvature="0" />
      <path
         d="m 358.245,404.28406 0,-13.24219 3.59375,0 0,13.10547 q 0,3.10547 1.21093,4.66797 1.21094,1.54297 3.63282,1.54297 2.91015,0 4.58984,-1.85547 1.69922,-1.85547 1.69922,-5.0586 l 0,-12.40234 3.59375,0 0,21.875 -3.59375,0 0,-3.35937 q -1.3086,1.99218 -3.04688,2.96875 -1.71875,0.95703 -4.0039,0.95703 -3.76953,0 -5.72266,-2.34375 -1.95312,-2.34375 -1.95312,-6.85547 z"
         style="font-style:normal;font-variant:normal;font-weight:normal;font-stretch:normal;font-size:40px;line-height:125%;font-family:'Bitstream Vera Sans';-inkscape-font-specification:'Bitstream Vera Sans, Normal';text-align:start;writing-mode:lr-tb;text-anchor:start;fill:#ffffff"
         id="path3348"
         inkscape:connector-curvature="0" />
      <path
         d="m 396.6825,394.40125 q -0.60547,-0.35157 -1.32813,-0.50782 -0.70312,-0.17578 -1.5625,-0.17578 -3.04687,0 -4.6875,1.99219 -1.62109,1.97266 -1.62109,5.68359 l 0,11.52344 -3.61328,0 0,-21.875 3.61328,0 0,3.39844 q 1.13281,-1.99219 2.94922,-2.94922 1.8164,-0.97656 4.41406,-0.97656 0.37109,0 0.82031,0.0586 0.44922,0.0391 0.99609,0.13672 l 0.0195,3.69141 z"
         style="font-style:normal;font-variant:normal;font-weight:normal;font-stretch:normal;font-size:40px;line-height:125%;font-family:'Bitstream Vera Sans';-inkscape-font-specification:'Bitstream Vera Sans, Normal';text-align:start;writing-mode:lr-tb;text-anchor:start;fill:#ffffff"
         id="path3350"
         inkscape:connector-curvature="0" />
      <path
         d="m 415.41296,391.88171 0,3.35938 q -1.52343,-0.83984 -3.0664,-1.25 -1.52344,-0.42969 -3.08594,-0.42969 -3.49609,0 -5.42969,2.22656 -1.93359,2.20704 -1.93359,6.21094 0,4.00391 1.93359,6.23047 1.9336,2.20703 5.42969,2.20703 1.5625,0 3.08594,-0.41015 1.54297,-0.42969 3.0664,-1.26954 l 0,3.32032 q -1.5039,0.70312 -3.125,1.05468 -1.60156,0.35157 -3.41796,0.35157 -4.94141,0 -7.85157,-3.10547 -2.91015,-3.10547 -2.91015,-8.37891 0,-5.35156 2.92968,-8.41797 2.94922,-3.0664 8.06641,-3.0664 1.66016,0 3.24219,0.35156 1.58203,0.33203 3.0664,1.01562 z"
         style="font-style:normal;font-variant:normal;font-weight:normal;font-stretch:normal;font-size:40px;line-height:125%;font-family:'Bitstream Vera Sans';-inkscape-font-specification:'Bitstream Vera Sans, Normal';text-align:start;writing-mode:lr-tb;text-anchor:start;fill:#ffffff"
         id="path3352"
         inkscape:connector-curvature="0" />
      <path
         d="m 440.3739,401.08093 0,1.75782 -16.52344,0 q 0.23438,3.71093 2.22657,5.66406 2.01172,1.93359 5.58593,1.93359 2.07032,0 4.00391,-0.50781 1.95313,-0.50781 3.86719,-1.52344 l 0,3.39844 q -1.9336,0.82031 -3.96485,1.25 -2.03125,0.42969 -4.12109,0.42969 -5.23437,0 -8.30078,-3.04688 -3.04688,-3.04687 -3.04688,-8.24219 0,-5.37109 2.89063,-8.51562 2.91016,-3.16406 7.83203,-3.16406 4.41406,0 6.97266,2.85156 2.57812,2.83203 2.57812,7.71484 z m -3.59375,-1.05468 q -0.0391,-2.94922 -1.66015,-4.70704 -1.60157,-1.75781 -4.25782,-1.75781 -3.00781,0 -4.82422,1.69922 -1.79687,1.69922 -2.07031,4.78516 l 12.8125,-0.0195 z"
         style="font-style:normal;font-variant:normal;font-weight:normal;font-stretch:normal;font-size:40px;line-height:125%;font-family:'Bitstream Vera Sans';-inkscape-font-specification:'Bitstream Vera Sans, Normal';text-align:start;writing-mode:lr-tb;text-anchor:start;fill:#ffffff"
         id="path3354"
         inkscape:connector-curvature="0" />
      <path
         d="m 447.42468,416.62781 1.36719,0 q 2.73438,0 3.55469,-0.83985 0.83984,-0.83984 0.83984,-3.63281 l 0,-4.84375 q 0,-3.04687 0.87891,-4.43359 0.8789,-1.38672 3.04687,-1.91406 -2.16797,-0.48829 -3.04687,-1.875 -0.87891,-1.38672 -0.87891,-4.45313 l 0,-4.84375 q 0,-2.77344 -0.83984,-3.61328 -0.82031,-0.85938 -3.55469,-0.85938 l -1.36719,0 0,-2.79296 1.23047,0 q 4.86328,0 6.48438,1.44531 1.64062,1.42578 1.64062,5.74219 l 0,4.6875 q 0,2.91015 1.05469,4.04296 1.05469,1.11329 3.82812,1.11329 l 1.21094,0 0,2.79296 -1.21094,0 q -2.77343,0 -3.82812,1.13282 -1.05469,1.13281 -1.05469,4.08203 l 0,4.66797 q 0,4.3164 -1.64062,5.76172 -1.6211,1.44531 -6.48438,1.44531 l -1.23047,0 0,-2.8125 z"
         style="font-style:normal;font-variant:normal;font-weight:normal;font-stretch:normal;font-size:40px;line-height:125%;font-family:'Bitstream Vera Sans';-inkscape-font-specification:'Bitstream Vera Sans, Normal';text-align:start;writing-mode:lr-tb;text-anchor:start;fill:#00ff00"
         id="path3356"
         inkscape:connector-curvature="0" />
    </g>
  </g>
</svg>
