<?xml version="1.0" standalone="no"?>
<!DOCTYPE svg PUBLIC "-//W3C//DTD SVG 1.1//EN" "http://www.w3.org/Graphics/SVG/1.1/DTD/svg11.dtd" >
<svg>
<metadata>
Created by FontForge 20110222 at Mon Mar  7 04:34:25 2011
 By www-data
Greg Smith 1997
</metadata>
<defs>
<font id="Handi" horiz-adv-x="303" >
  <font-face 
    font-family="Handi"
    font-weight="400"
    font-stretch="normal"
    units-per-em="1000"
    panose-1="2 0 5 3 0 0 0 0 0 0"
    ascent="800"
    descent="-200"
    x-height="439"
    cap-height="800"
    bbox="-74 -509 1131 840"
    underline-thickness="20"
    underline-position="-143"
    unicode-range="U+0020-203A"
  />
    <missing-glyph />
    <glyph glyph-name="space" unicode=" " horiz-adv-x="500" 
 />
    <glyph glyph-name="exclam" unicode="!" horiz-adv-x="419" 
d="M448 741c-23 -35 -56 -79 -100 -131c-132 -153 -175 -214 -204 -292c-7 -3 -16 -13 -28 -30c-11 -15 -21 -22 -30 -22c-18 0 -26 11 -26 31c0 11 4 27 13 49c10 24 11 32 11 45c25 15 47 42 67 82c21 43 40 70 56 82c55 67 108 148 159 245c7 10 15 15 24 15
c28 0 58 -37 58 -74zM94 75c0 -13 0 -16 -41 -75c-77 29 -80 31 -82 55c3 92 4 92 38 92c45 0 84 -32 85 -72z" />
    <glyph glyph-name="numbersign" unicode="#" horiz-adv-x="630" 
d="M623 569c-9 -9 -19 -17 -32 -24c-110 -51 -126 -61 -148 -88l-58 -101c13 -17 30 -27 52 -28h43c13 -1 15 -3 15 -15c-13 -6 -33 -11 -62 -16c-86 -15 -129 -41 -139 -93c-19 -10 -34 -30 -44 -60c-11 -47 -19 -62 -35 -63c19 33 24 46 70 185
c-170 -16 -187 -29 -217 -91c-6 -13 -13 -22 -20 -28l-12 4c5 9 8 18 8 29c0 17 -8 38 -23 63c-9 15 -13 25 -13 30c0 15 17 22 74 38c35 14 54 44 57 90c-25 6 -25 8 -31 52c133 50 137 52 208 221c7 16 16 29 25 38c18 0 31 -9 40 -28c-11 -14 -20 -37 -28 -68
c-7 -29 -22 -53 -45 -74c21 -15 40 -23 57 -23c6 0 13 1 21 4c14 5 20 7 48 12c33 42 75 106 126 193c2 2 5 3 7 3s5 -2 34 -27c-2 -21 -2 -22 -58 -112c13 -19 28 -29 45 -29c6 0 25 3 35 6zM394 475c-174 -36 -214 -51 -214 -152l140 6c56 82 61 91 74 146z" />
    <glyph glyph-name="dollar" unicode="$" horiz-adv-x="559" 
d="M598 727l-4 -36c-144 -179 -160 -202 -189 -261c5 -11 11 -20 18 -29c29 -29 37 -41 37 -58c0 -40 -85 -117 -160 -127c-4 1 -8 2 -12 2c-13 0 -25 -8 -36 -25c-11 -20 -21 -27 -37 -29c-5 -30 -6 -31 -41 -99c-11 -23 -19 -42 -22 -58c-19 -10 -22 -12 -27 -12
c-10 0 -20 21 -20 40s4 29 38 94c11 22 18 42 20 61c-9 2 -18 3 -25 3c-40 0 -55 -21 -90 -94c-9 -18 -18 -32 -27 -42c0 -32 -2 -38 -20 -39c-20 5 -33 15 -39 28c7 31 13 43 90 208c-10 11 -16 22 -16 34c0 4 1 9 3 14l53 14c61 103 65 110 71 145c-58 54 -72 68 -72 86
c0 7 2 15 6 22c23 12 90 39 200 82c20 30 56 79 109 148c22 -6 41 -31 46 -56c0 -4 -3 -9 -9 -14c-14 -11 -17 -16 -25 -39c11 -5 21 -8 30 -8c32 0 49 8 65 33c14 28 29 43 44 44c32 -16 38 -22 41 -32zM417 604l-45 6c-41 -37 -76 -83 -105 -136l35 -14c11 -5 22 -8 33 -8
c66 73 82 102 82 152zM400 353h-33c-18 0 -27 -11 -27 -32c0 -8 2 -16 6 -23zM298 387c-17 18 -32 27 -47 27c-13 0 -26 -7 -39 -21c-27 -35 -32 -40 -45 -52c1 -4 2 -8 2 -11c0 -6 -4 -15 -9 -20c-7 -11 -11 -21 -11 -29c0 -7 2 -14 6 -22h56c68 85 76 95 87 128z" />
    <glyph glyph-name="percent" unicode="%" horiz-adv-x="590" 
d="M394 662c-5 -56 -78 -123 -120 -123c-7 2 -60 14 -78 18c-21 20 -29 40 -42 105c15 49 43 68 163 138c20 -6 35 -15 44 -28c-2 -9 -3 -18 -3 -26c0 -12 2 -22 5 -32c18 -8 22 -16 31 -52zM626 703c0 -30 -8 -41 -49 -73c-31 -24 -71 -63 -118 -117
c-51 -57 -89 -97 -114 -119c-226 -253 -259 -289 -318 -390l-57 -4c-4 9 -6 17 -6 24c0 20 5 25 48 68c11 12 19 23 23 34c33 33 79 85 140 156c59 69 105 119 137 152c12 23 31 47 56 73c68 66 85 83 107 115c17 10 26 21 76 97c13 16 25 24 35 24c17 0 40 -28 40 -40z
M507 98c-1 -17 -5 -31 -12 -40c-47 -39 -92 -59 -133 -59c-60 0 -93 35 -104 111c18 74 95 149 167 163c11 0 12 0 50 -37c0 -52 7 -71 32 -92v-46zM326 686c-49 0 -78 -17 -87 -51c0 -15 2 -17 16 -17l9 3h7c37 14 55 36 55 65zM416 164c-10 0 -17 -4 -42 -27
c-6 -5 -13 -8 -21 -8c0 -6 -2 -10 -9 -21c-2 -3 -3 -6 -3 -9c0 -11 10 -20 23 -20c46 0 82 34 82 49c0 17 -16 36 -30 36z" />
    <glyph glyph-name="ampersand" unicode="&#x26;" horiz-adv-x="677" 
d="M630 276c-5 -17 -24 -44 -57 -79c-34 -37 -46 -64 -46 -109c-4 -6 -9 -10 -16 -10c-8 0 -20 5 -32 13c-9 8 -19 13 -31 13c-5 -1 -6 -1 -69 -23c-48 -38 -158 -77 -217 -77c-69 0 -114 41 -114 95c0 25 19 59 58 102c17 19 29 36 38 51c7 13 20 25 37 37
c56 37 60 40 74 66c-4 22 -10 35 -44 84c-11 16 -16 30 -16 43c0 58 79 149 165 172c124 -16 129 -20 146 -71c7 -15 7 -19 9 -34c0 -26 -68 -138 -131 -192c14 -50 36 -75 107 -142l123 99c6 -5 11 -18 16 -38zM441 554c-21 12 -49 18 -84 18c-60 -38 -79 -62 -85 -104
c15 -26 34 -42 57 -49c53 35 91 80 112 135zM432 181c-17 17 -28 28 -33 35c-36 46 -57 66 -81 80c-114 -66 -160 -107 -196 -175c0 -40 12 -49 63 -49c64 0 146 36 247 109z" />
    <glyph glyph-name="quotesingle" unicode="'" horiz-adv-x="217" 
d="M210 700c9 -21 14 -46 14 -74c0 -80 -21 -107 -84 -170c-38 -34 -71 -51 -100 -51s-47 12 -47 32c0 7 7 15 22 24c42 20 55 28 61 40c55 93 58 98 58 122c0 10 -2 20 -6 31c-29 24 -44 52 -45 83c13 18 26 27 39 27c19 0 34 -13 88 -64z" />
    <glyph glyph-name="parenleft" unicode="(" horiz-adv-x="458" 
d="M485 714c-23 -7 -91 -32 -204 -75c-169 -125 -214 -214 -214 -402c0 -65 25 -107 75 -124c31 -10 61 -47 61 -74c0 -36 0 -37 -63 -40c-41 0 -84 29 -127 87c-30 61 -45 129 -45 202c0 136 44 253 131 351l112 97c21 2 45 11 72 26c92 52 93 52 118 52
c58 0 71 -25 89 -84c0 -6 -2 -11 -5 -16z" />
    <glyph glyph-name="parenright" unicode=")" horiz-adv-x="310" 
d="M324 525c5 -41 8 -77 8 -108c0 -153 -74 -266 -267 -417c-13 -7 -26 -10 -40 -10c-16 0 -28 5 -35 15c-8 25 -12 44 -12 56c0 39 14 50 56 50c15 0 25 2 31 6c123 85 180 186 180 302c-2 102 -46 199 -133 291c1 3 2 8 2 13c-1 5 -6 46 -6 47c0 16 8 26 25 30
c90 -27 136 -93 191 -275z" />
    <glyph glyph-name="asterisk" unicode="*" horiz-adv-x="528" 
d="M419 377c-125 -30 -133 -35 -133 -73c0 -16 2 -26 14 -51c4 -10 6 -18 6 -25c0 -6 -1 -10 -4 -14c-5 1 -13 10 -26 26c-13 17 -26 25 -40 25c-6 0 -13 -1 -20 -4c-26 -67 -44 -93 -118 -203c-2 -1 -5 -2 -12 -6c0 26 2 36 15 57c15 26 24 45 26 57c17 24 26 41 26 52
c0 9 -3 19 -10 28c-15 -3 -84 -16 -93 -17c-8 0 -16 1 -22 4c8 20 9 25 9 37c0 18 -8 30 -26 36c-6 2 -8 6 -8 12c0 2 2 11 9 43c17 11 26 12 95 12c29 0 49 4 70 14c0 29 -5 43 -28 84c-6 13 -9 24 -9 33c0 7 2 14 6 21c14 0 18 0 42 -21c6 -23 26 -45 59 -65
c35 40 39 48 89 171c17 40 34 70 53 89c19 0 30 -12 35 -35c-1 -36 -7 -49 -78 -170l14 -30l133 94c4 -1 9 -7 15 -18l4 -7c-9 -31 -19 -48 -40 -61c4 -32 13 -34 53 -34c1 0 2 -1 2 -2c0 -16 -58 -47 -108 -59z" />
    <glyph glyph-name="plus" unicode="+" horiz-adv-x="407" 
d="M400 416c-14 -10 -34 -19 -59 -28c-104 -35 -140 -57 -163 -199c-7 -39 -26 -66 -57 -83c0 -27 -2 -34 -23 -43c-12 5 -20 15 -25 32c21 94 23 100 42 117l23 146c-60 7 -131 60 -131 88c0 6 5 15 23 33c73 -28 84 -32 107 -32c17 0 33 4 49 13c43 71 81 155 116 250
c4 4 9 6 15 6c28 0 51 -23 52 -51c0 -40 -11 -71 -65 -170c9 -22 23 -33 43 -33c4 0 9 1 20 3c9 0 31 -33 33 -49z" />
    <glyph glyph-name="comma" unicode="," horiz-adv-x="341" 
d="M272 112c9 -21 14 -46 14 -74c0 -56 -16 -100 -47 -133c-56 -59 -101 -89 -136 -89c-30 0 -48 11 -48 32c0 9 7 17 22 25c40 18 54 26 61 39c55 93 58 98 58 122c0 10 -2 20 -6 31c-29 24 -44 52 -45 83c13 19 26 28 39 28c15 0 28 -9 88 -64z" />
    <glyph glyph-name="hyphen" unicode="-" horiz-adv-x="469" 
d="M463 397c0 -25 0 -26 -47 -68c-124 13 -125 13 -197 17c-40 0 -74 -5 -103 -14c-99 32 -110 40 -110 66c0 25 11 39 30 39c62 -9 63 -9 89 -10c52 0 100 12 154 39c21 10 40 15 59 15h24c4 2 7 3 12 3c13 0 23 -7 68 -44z" />
    <glyph glyph-name="period" unicode="." horiz-adv-x="279" 
d="M158 0c-39 0 -54 25 -83 80c-5 10 -13 24 -25 42c-2 5 -3 11 -3 18c0 37 31 83 69 100c46 -14 67 -23 82 -34c23 -16 34 -38 34 -66c0 -30 -42 -131 -74 -140z" />
    <glyph glyph-name="slash" unicode="/" horiz-adv-x="640" 
d="M680 773c-45 -123 -96 -181 -347 -424c-52 -51 -96 -101 -133 -150c0 -83 0 -84 -125 -200c-25 -5 -45 -7 -60 -7c-26 0 -44 6 -55 19c54 131 94 175 381 487l220 308c11 15 26 23 45 23c31 0 62 -24 74 -56z" />
    <glyph glyph-name="zero" unicode="0" horiz-adv-x="874" 
d="M821 576c3 -19 5 -37 5 -56c0 -67 -21 -138 -64 -213c-40 -62 -80 -124 -119 -186c-65 -65 -170 -105 -317 -121c-162 43 -200 53 -224 121c-39 48 -58 107 -58 176c0 53 12 99 35 140c12 51 45 99 99 143c48 33 96 66 143 99c216 100 253 114 316 121
c80 -7 134 -34 161 -81c21 -35 31 -68 31 -99c0 -15 -3 -30 -8 -44zM725 704c-54 34 -60 37 -83 37c-29 0 -59 -11 -91 -33c6 -17 9 -30 9 -39c0 -10 -3 -18 -9 -24c-240 -55 -396 -193 -396 -352c0 -64 29 -145 62 -167c17 -10 24 -11 58 -11c27 -10 54 -15 83 -15
c85 0 161 36 227 107l123 177c44 71 66 136 66 195c0 79 -22 109 -49 125z" />
    <glyph glyph-name="one" unicode="1" horiz-adv-x="874" 
d="M615 577c-25 -23 -54 -64 -87 -121l-25 -5c-17 -31 -50 -83 -101 -155c-46 -66 -78 -119 -96 -159c2 -6 3 -12 3 -19c0 -37 -25 -76 -74 -118c-6 5 -16 9 -30 12c-31 7 -41 18 -41 44c0 11 6 25 18 43c17 25 17 32 17 53c46 50 46 51 46 81l66 56l304 470
c0 15 3 19 30 41c53 -27 65 -33 65 -52c0 -15 -66 -143 -95 -171z" />
    <glyph glyph-name="two" unicode="2" horiz-adv-x="874" 
d="M683 0c-32 0 -96 39 -200 118c-57 43 -106 71 -148 84l-140 -82c-31 0 -55 26 -61 64c0 23 7 36 52 91c21 24 43 29 130 29c18 0 32 1 43 4c160 139 234 241 260 357c0 22 -16 43 -48 63c-91 -18 -109 -25 -125 -58c1 -3 2 -6 2 -9c0 -10 -10 -20 -31 -30
c-26 0 -46 32 -49 76c0 36 21 67 54 79c61 23 107 35 136 35c53 0 87 -25 134 -93c4 -17 6 -35 6 -54c0 -105 -46 -183 -188 -320c-38 -37 -64 -65 -79 -84c14 -36 43 -57 87 -63c31 -45 72 -76 125 -91c7 8 16 12 27 12c13 0 25 -4 36 -12c1 -6 7 -15 18 -26s16 -21 16 -28
c0 -10 -34 -62 -57 -62z" />
    <glyph glyph-name="three" unicode="3" horiz-adv-x="874" 
d="M783 706c-13 -90 -57 -128 -247 -291c59 -42 92 -96 95 -152c0 -101 -92 -187 -235 -222c-43 -11 -101 -19 -176 -26l-10 -15c-5 11 -17 17 -35 19c-31 2 -32 2 -67 45c-11 14 -17 26 -17 36c0 18 15 33 33 33c7 0 18 -4 31 -11c14 -7 66 -14 115 -14
c166 0 242 99 271 154c0 43 -20 55 -109 89c-24 0 -30 0 -57 -21c-17 -13 -32 -19 -44 -19c-15 0 -35 31 -42 64c14 40 33 50 138 84c181 124 222 152 257 232c-23 19 -52 28 -87 28c-36 0 -74 -9 -115 -28c-17 -32 -22 -42 -53 -42c-17 0 -35 33 -37 60c0 32 28 62 85 91
c53 6 95 9 125 9c60 0 110 -10 151 -29c0 -11 17 -61 30 -74z" />
    <glyph glyph-name="four" unicode="4" horiz-adv-x="874" 
d="M859 310c-20 -30 -49 -45 -86 -45c-4 0 -26 1 -45 3c-28 -2 -58 -3 -66 -3c-19 0 -34 5 -46 15c-107 0 -172 -38 -241 -149c3 -10 4 -14 5 -16c-36 -9 -44 -21 -77 -109c-4 -10 -6 -10 -13 -10c-10 13 -15 28 -15 43c0 13 4 31 13 53c33 74 39 95 42 132
c-23 31 -50 47 -82 47c-21 0 -55 -11 -101 -32c-11 -5 -31 -12 -61 -22c-4 -14 -7 -21 -11 -21c-7 2 -32 11 -41 15c-16 20 -24 38 -24 54c0 26 5 33 95 120c25 27 42 52 49 76c151 213 169 239 193 318c8 13 18 19 31 19c25 0 45 -20 60 -59c-12 -38 -46 -88 -102 -151
c-71 -79 -105 -139 -126 -228c18 2 35 3 49 3c23 0 24 -1 81 -13c19 -4 34 -6 47 -6c80 0 106 30 329 357c12 19 41 32 82 38c8 -7 12 -20 12 -40c0 -9 -1 -20 -3 -33c-65 -65 -145 -163 -240 -294c55 -21 113 -32 173 -32c44 0 85 6 124 17c0 -1 -2 -21 -5 -47z" />
    <glyph glyph-name="five" unicode="5" horiz-adv-x="874" 
d="M796 722c0 -26 -31 -31 -51 -31c-16 0 -34 9 -54 26h-28c-57 0 -73 -6 -222 -84c-22 -22 -23 -23 -114 -146c153 -59 189 -80 216 -129c22 -5 29 -23 30 -68c0 -94 -41 -175 -109 -214c-95 -55 -183 -82 -263 -82c-21 0 -42 2 -63 6c-37 37 -56 68 -56 93
c0 27 61 64 90 64c4 0 5 0 13 -17l-17 -52c17 -11 34 -17 52 -17c21 0 48 8 115 34c89 26 156 91 178 173c-39 62 -110 93 -211 93c-23 0 -50 -2 -79 -5c-62 -49 -71 -56 -88 -56c-24 0 -43 27 -43 56c0 17 0 18 168 181c61 63 100 125 117 184c129 51 235 76 318 76
c62 0 75 -3 95 -18c-2 -6 -3 -12 -3 -18c0 -3 0 -6 9 -49z" />
    <glyph glyph-name="six" unicode="6" horiz-adv-x="874" 
d="M738 736c-6 -20 -11 -37 -11 -38c-194 -66 -372 -210 -471 -379v-4c0 -1 0 -3 -4 -16c0 -3 3 -4 9 -4c7 7 28 16 62 27c27 9 45 22 54 41c9 -7 18 -11 28 -11c6 2 58 12 59 12c66 0 145 -47 181 -113c11 -29 16 -56 16 -81c0 -37 -12 -65 -36 -84
c-71 -57 -149 -86 -232 -86c-41 0 -80 8 -118 23c-19 17 -61 36 -126 58c-8 11 -12 23 -12 37c11 64 12 69 12 77c0 10 -2 19 -5 27c35 211 194 384 525 578h6c31 0 63 -62 63 -64zM481 290c-102 0 -202 -51 -259 -131c36 -55 94 -83 173 -83c26 0 54 3 84 10
c25 14 49 28 74 41c25 16 38 38 38 64c0 40 -35 98 -110 99z" />
    <glyph glyph-name="seven" unicode="7" horiz-adv-x="874" 
d="M746 732c-9 -108 -53 -188 -168 -317c-60 -68 -100 -116 -119 -143c-139 -123 -153 -136 -183 -178l5 -5c-14 -4 -34 -21 -61 -52c-25 -28 -43 -37 -70 -37c-15 16 -22 30 -22 43s55 102 127 140c185 185 310 345 376 481c0 16 -5 20 -47 31c-192 -7 -250 -16 -329 -52
c-5 -3 -11 -4 -16 -4c-29 0 -40 31 -44 68c0 37 17 45 128 67c35 3 87 12 157 26c15 -5 34 -8 55 -8c12 1 98 6 99 6c55 0 92 -22 112 -66z" />
    <glyph glyph-name="eight" unicode="8" horiz-adv-x="874" 
d="M842 686c-44 -20 -72 -35 -83 -44c-25 -21 -67 -42 -126 -64c-58 -22 -101 -47 -130 -74c-157 -75 -204 -106 -252 -164c64 -82 101 -177 107 -271c0 -50 -24 -69 -88 -69c-33 0 -77 11 -132 33c-61 24 -105 38 -132 41c-51 51 -68 68 -68 108c4 35 22 67 53 95
c130 94 135 98 155 121c-2 46 -9 66 -59 214c-7 27 -11 50 -11 70c0 99 87 158 229 158c64 0 100 -6 272 -40c7 -9 26 -23 55 -42c21 -14 35 -32 40 -53c52 0 74 12 138 51c47 29 85 43 114 43c9 1 13 -8 13 -15c0 -26 -38 -73 -95 -98zM563 649v1l-52 -1
c-7 -2 -13 -4 -22 -5c-3 0 -6 1 -9 3l45 46c-61 33 -126 50 -193 50c-57 0 -107 -13 -149 -39c-11 -23 -16 -47 -16 -72c0 -48 19 -100 56 -174c87 37 95 41 340 191zM276 112l-71 184l-31 24c-65 -24 -120 -76 -165 -155c3 -11 10 -20 21 -28c9 -4 10 -7 13 -13
c109 -42 124 -47 155 -47c29 0 55 12 78 35z" />
    <glyph glyph-name="nine" unicode="9" horiz-adv-x="874" 
d="M378 142c-64 -121 -65 -122 -69 -137c-5 -7 -11 -10 -19 -10c-24 0 -45 26 -45 55c0 16 9 38 27 67c19 31 30 54 32 69c123 155 157 200 191 264l-10 9c-57 -17 -109 -25 -156 -25c-59 0 -109 13 -152 40c-56 76 -62 84 -62 108c0 8 1 16 4 24c-1 7 -2 13 -2 19
c0 43 24 69 99 128c68 31 143 47 225 47c152 0 319 -59 319 -132c0 -29 -232 -349 -382 -526zM627 679c-13 6 -36 13 -70 21c-31 7 -53 14 -67 23c-25 -7 -27 -7 -29 -7c-7 0 -12 4 -15 12c-153 -9 -217 -47 -240 -137c0 -11 8 -27 25 -48c30 -15 62 -22 96 -22
c52 0 128 25 227 75c62 56 70 64 73 83z" />
    <glyph glyph-name="colon" unicode=":" horiz-adv-x="274" 
d="M280 676c2 -7 3 -13 3 -20c0 -53 -56 -108 -111 -108c-45 0 -67 44 -96 132c3 11 6 24 7 40c4 64 14 85 77 85c47 0 67 -32 120 -129zM103 0c-37 0 -45 12 -107 115c-3 9 -5 18 -5 29c0 40 23 80 55 95c98 -21 146 -59 146 -116c0 -37 -53 -116 -89 -123z" />
    <glyph glyph-name="semicolon" unicode=";" horiz-adv-x="312" 
d="M257 616c-17 0 -32 6 -44 18c-26 38 -39 66 -39 84c0 32 24 66 51 69c20 3 33 7 38 13c47 -40 71 -76 71 -108c0 -51 -45 -76 -77 -76zM289 280c0 -86 -42 -167 -127 -244c-15 -2 -36 -10 -64 -25c-27 -15 -48 -22 -62 -22c-11 0 -22 4 -32 11c-25 41 -26 43 -26 50
c0 5 1 10 4 15c59 44 189 151 189 207c0 12 -4 29 -11 50s-11 37 -11 46c0 24 18 42 39 44c66 0 101 -61 101 -132z" />
    <glyph glyph-name="equal" unicode="=" horiz-adv-x="566" 
d="M560 523c-24 -35 -63 -48 -151 -50c-15 0 -21 0 -133 4l-22 -16c-10 3 -21 4 -34 4c-78 -7 -85 -7 -89 -7c-33 0 -55 12 -66 36c-15 62 -15 63 -15 85c24 15 54 22 89 22c22 0 55 -3 99 -10c45 -7 78 -10 100 -10c27 0 51 3 74 10h31c15 -10 22 -11 91 -23
c17 -4 26 -17 26 -45zM577 174c-25 0 -53 -6 -110 -27c-20 -7 -36 -11 -48 -11c-19 0 -38 7 -59 20c-19 -9 -37 -14 -52 -14c-1 0 -70 7 -80 8c-30 0 -55 -12 -74 -35c-19 -2 -35 -3 -49 -3c-55 0 -94 20 -116 59v49c0 14 2 28 6 43c26 9 59 13 99 13c17 0 72 -4 205 -13
c22 0 42 1 61 4c25 0 60 -7 105 -22c48 -15 84 -23 107 -24c5 -8 8 -18 8 -28c0 -6 -1 -12 -3 -19z" />
    <glyph glyph-name="question" unicode="?" horiz-adv-x="451" 
d="M484 662c0 -73 -99 -162 -192 -178c-6 -11 -19 -18 -38 -22c-19 -3 -31 -9 -37 -18c-73 -39 -97 -56 -97 -104c0 -7 2 -25 7 -63c0 -16 -5 -29 -15 -39c-48 23 -62 59 -62 162c43 79 72 93 326 198c29 46 29 46 29 56c0 5 -1 10 -3 15c-28 17 -55 26 -80 26
c-17 0 -31 -4 -43 -13c0 -18 -3 -19 -49 -31c-31 0 -57 19 -61 44c0 21 24 44 48 49c84 51 95 56 112 56c15 0 29 -7 42 -21c77 -25 113 -62 113 -117zM81 63c0 -19 -30 -68 -50 -68c-16 0 -63 39 -63 59c16 49 16 50 16 65c9 5 19 7 28 7c32 0 69 -32 69 -63z" />
    <glyph glyph-name="at" unicode="@" horiz-adv-x="774" 
d="M779 470c-8 -71 -90 -210 -165 -282c-31 -31 -61 -46 -89 -46c-9 0 -18 2 -27 5c-15 19 -33 29 -53 29c-14 0 -42 -12 -84 -35c-25 -14 -46 -21 -64 -21c-75 0 -86 88 -86 130c0 91 36 110 225 179c84 0 130 -31 130 -87c0 -24 -12 -55 -36 -93c8 -5 16 -8 23 -8
c26 0 79 60 112 109c9 14 29 50 61 107c-25 59 -99 100 -220 122c-218 -50 -252 -62 -304 -123c-77 -56 -140 -165 -140 -248c0 -19 3 -37 8 -55c68 -89 68 -90 165 -97c27 0 66 5 117 15c52 11 91 16 117 16c1 -1 2 -4 2 -9c-3 -32 -6 -36 -22 -36c-9 0 -21 -2 -38 -7
c-110 -29 -147 -37 -199 -38c-75 0 -131 24 -167 77c-33 61 -50 113 -51 157c0 117 86 234 260 358c111 48 114 49 284 56c126 -31 206 -89 241 -175zM451 338l-47 6c-87 -48 -107 -65 -116 -102c0 -23 19 -34 57 -34c53 31 88 74 106 130z" />
    <glyph glyph-name="A" unicode="A" horiz-adv-x="686" 
d="M642 460c3 -6 5 -11 5 -16c0 -8 -6 -18 -18 -29c-42 -40 -113 -215 -143 -346c-9 -6 -17 -20 -22 -42c-4 -18 -12 -27 -24 -27c-26 0 -40 15 -44 46c0 13 7 30 22 53c17 27 18 35 18 58c74 201 80 214 92 240c-47 -5 -65 -10 -256 -72c-7 -2 -18 -13 -33 -33
s-29 -31 -43 -34c-14 -29 -22 -38 -101 -122c-10 -25 -20 -36 -92 -101c-46 16 -50 19 -50 37s6 31 24 46c19 16 31 28 34 35c182 199 380 395 593 588c36 61 38 61 51 61c3 0 7 -1 12 -2c4 -7 6 -8 29 -13l34 -37c-1 -5 -2 -10 -2 -15c0 -1 3 -30 6 -45
c0 -30 -11 -61 -92 -230zM637 649l-4 12c-22 -13 -50 -35 -83 -66s-57 -51 -72 -60c-70 -70 -71 -71 -72 -84c17 0 20 0 147 13z" />
    <glyph glyph-name="B" unicode="B" horiz-adv-x="680" 
d="M720 697c5 -12 7 -24 7 -37c0 -36 -12 -55 -77 -133c-24 -19 -25 -20 -202 -111c85 -56 140 -145 140 -228c0 -13 -1 -25 -4 -37c-64 -101 -173 -152 -328 -152c-77 0 -117 8 -165 28c-26 11 -46 18 -61 21c-4 10 -19 20 -44 31c-23 9 -34 21 -34 34s0 13 72 104
c24 33 41 63 52 91c121 142 209 272 264 389c0 53 0 54 145 103c20 4 40 6 60 6c55 0 98 -14 130 -43zM650 668c-11 24 -27 32 -78 45c-98 -21 -116 -26 -145 -45c-85 -141 -92 -151 -116 -174c-15 -3 -27 -15 -37 -37c11 -3 23 -4 34 -4c29 0 64 10 105 31
c52 25 86 39 101 43c8 0 17 6 28 18c14 15 18 15 30 15c72 76 76 81 78 108zM510 246c-30 70 -106 116 -187 116c-27 0 -52 -5 -74 -16c-10 8 -19 12 -27 12c-11 0 -23 -11 -36 -32c-15 -24 -27 -38 -36 -42c-3 -3 -7 -12 -10 -29c-3 -14 -9 -17 -23 -17c1 -4 2 -8 2 -12
c0 -5 -1 -8 -18 -50c-3 4 -6 6 -9 6c-2 0 -3 -1 -12 -6c-10 -27 -16 -45 -16 -49c0 -7 3 -14 8 -21c55 -25 115 -38 179 -38c138 0 268 70 268 150c0 10 -3 19 -9 28z" />
    <glyph glyph-name="C" unicode="C" horiz-adv-x="838" 
d="M781 168c-52 -27 -104 -54 -157 -81c-281 -76 -333 -87 -412 -87c-85 0 -157 24 -214 71c-37 52 -56 104 -56 156c0 117 134 309 300 427c141 100 288 146 443 146c41 -1 79 -33 79 -72c0 -55 -32 -86 -87 -86c-43 0 -66 17 -69 50c-15 4 -30 6 -45 6
c-53 0 -76 -8 -237 -88c-13 -2 -27 -11 -42 -27c-17 -18 -32 -29 -45 -34c-108 -99 -217 -280 -217 -348c0 -20 6 -38 17 -53c22 -41 69 -62 142 -62c289 0 487 70 699 247c8 0 17 -14 17 -25c0 -35 -58 -105 -116 -140z" />
    <glyph glyph-name="D" unicode="D" horiz-adv-x="625" 
d="M653 515c-4 -11 -6 -23 -6 -37c0 -12 2 -31 7 -82c0 -13 -2 -24 -5 -33c-6 -229 -121 -364 -310 -364c-106 0 -301 60 -338 104c-3 3 -28 37 -30 51c0 30 20 49 51 49c10 0 22 -5 37 -14s25 -14 32 -14c20 0 24 5 133 160c47 66 84 116 113 149c112 161 138 198 147 276
c10 1 22 9 37 23s27 21 36 21c50 0 63 -64 83 -178c5 -8 8 -17 8 -26c0 -2 -1 -9 -10 -56c0 -11 5 -21 15 -29zM546 626c-95 -123 -102 -131 -129 -151c-1 -8 -7 -17 -17 -27c-14 -13 -14 -14 -14 -36c-43 -35 -56 -53 -174 -218c-21 0 -28 0 -36 -22
c-17 -42 -22 -48 -43 -48c-10 0 -19 3 -28 8v-5c57 -37 131 -56 221 -56c21 0 42 1 64 3c47 15 101 58 161 129c17 57 26 122 26 193c-9 206 -10 207 -31 230z" />
    <glyph glyph-name="E" unicode="E" horiz-adv-x="692" 
d="M735 783c3 -15 5 -24 5 -27c0 -11 -6 -17 -18 -17c-29 0 -67 -8 -114 -24c-49 -17 -85 -27 -108 -28c-11 -9 -25 -31 -42 -64c-15 -27 -31 -45 -49 -53c-1 -10 -10 -22 -25 -35s-23 -25 -23 -35c11 -8 25 -12 43 -12c18 2 159 12 160 12c20 0 33 -7 40 -22
c-1 -21 -11 -34 -28 -38c-46 0 -72 -2 -85 -10c-32 0 -47 -2 -84 -16c-39 -14 -66 -22 -81 -23c-12 9 -22 13 -29 13c-20 0 -69 -57 -167 -200c10 -9 23 -14 39 -14c64 0 73 -2 141 -47c33 -22 57 -36 73 -43c11 -22 26 -33 47 -33c8 0 15 2 22 7c23 -11 34 -27 34 -48
c0 -22 -18 -35 -51 -35c-11 0 -22 3 -31 9c-124 81 -164 105 -220 105c-18 0 -55 -12 -128 -35c-24 -8 -43 -12 -58 -12c-35 0 -46 8 -46 40c0 21 17 46 50 75c74 62 338 419 420 566l35 39c21 1 54 7 99 18c41 11 74 16 97 16c24 0 47 -4 69 -12z" />
    <glyph glyph-name="F" unicode="F" horiz-adv-x="755" 
d="M808 786c-41 -27 -47 -32 -47 -47c-50 -21 -72 -27 -273 -80c-9 -18 -27 -44 -55 -77c-27 -33 -45 -59 -53 -78l-33 -48c15 -3 30 -4 46 -4c23 0 57 5 103 14c47 9 83 14 110 14c39 -11 47 -15 47 -28c-2 -21 -13 -33 -34 -36c-32 -6 -88 -17 -126 -29
c-32 -10 -47 -11 -76 -11c-51 -28 -105 -42 -164 -42c-98 -107 -172 -211 -221 -310l-52 -24c-22 13 -33 27 -33 42c0 14 12 34 37 61c28 29 44 49 48 62c23 37 86 125 189 263c81 108 138 199 173 273c-3 12 -4 22 -4 29c0 18 8 32 23 42c21 -8 44 -12 68 -12
c23 0 57 6 102 17c45 12 79 18 103 18c62 15 74 18 77 18c12 0 22 -4 31 -13z" />
    <glyph glyph-name="G" unicode="G" horiz-adv-x="683" 
d="M730 732c-17 -43 -45 -73 -84 -88c-4 -16 -11 -25 -22 -25c-21 0 -38 17 -38 37c9 32 10 40 10 41c0 17 -17 24 -60 24c-22 0 -32 -2 -186 -37c-206 -113 -336 -238 -336 -332c0 -17 3 -40 8 -68c35 -31 78 -47 131 -47c84 0 212 45 277 105c33 30 58 49 76 58
c27 -9 40 -23 40 -43c0 -16 -10 -32 -30 -49c-40 -32 -40 -33 -95 -134c-19 -31 -38 -84 -38 -105c0 -5 3 -13 9 -24c7 -11 10 -19 10 -24c0 -13 -17 -30 -29 -30c-20 0 -51 28 -51 97c-2 7 -3 13 -3 20c0 6 0 6 23 96c-19 0 -28 -2 -53 -11c-36 -14 -101 -23 -145 -23
c-69 0 -123 19 -162 58c-20 38 -30 77 -30 116c0 196 314 430 602 456c35 -4 69 -8 103 -11c39 -8 63 -27 73 -57z" />
    <glyph glyph-name="H" unicode="H" horiz-adv-x="759" 
d="M812 756c-12 -44 -14 -52 -109 -185c-46 -65 -76 -119 -89 -163c-21 -23 -43 -59 -68 -106c-45 -82 -142 -240 -162 -258c-11 -27 -23 -41 -37 -44l-16 16c33 89 63 145 178 352v12c-73 0 -79 0 -127 -7c-42 -6 -49 -7 -112 -7c-33 0 -55 -17 -93 -74
c-16 -25 -29 -41 -40 -50c-13 -17 -22 -30 -133 -185c-8 -6 -17 -9 -27 -9c-18 0 -30 14 -30 35c0 12 9 28 27 48s28 37 30 51c94 98 129 148 359 489c43 80 60 103 76 103c13 0 29 -9 46 -27c0 -43 -27 -83 -198 -303l8 -8c27 4 69 7 128 8s104 4 134 9
c119 223 148 276 198 347c28 -5 47 -19 57 -44z" />
    <glyph glyph-name="I" unicode="I" horiz-adv-x="486" 
d="M520 734c-3 -19 -18 -40 -43 -62s-38 -42 -39 -59c-33 -44 -36 -46 -49 -49c-61 -108 -75 -133 -117 -160c-14 -31 -44 -81 -91 -149c-42 -61 -70 -112 -84 -153c-20 -7 -26 -19 -26 -51c0 -30 -5 -43 -22 -51c-51 0 -79 16 -83 49c60 112 149 253 268 423
c31 45 101 151 209 320c9 5 16 8 22 8c15 0 18 -4 55 -66z" />
    <glyph glyph-name="J" unicode="J" horiz-adv-x="978" 
d="M1040 791c4 -8 6 -15 6 -22c0 -21 -15 -25 -80 -38c-11 5 -21 7 -31 7c-1 0 -66 -13 -81 -16c-9 0 -18 1 -27 4c-84 -95 -95 -111 -101 -157c-21 -19 -40 -54 -57 -103c-19 -53 -37 -90 -54 -110c-22 -69 -51 -125 -88 -166c0 -14 0 -17 -18 -31c-13 -9 -19 -18 -19 -25
c-50 -74 -129 -125 -208 -134l-148 9c-32 11 -92 41 -181 88c-15 19 -22 37 -22 53c0 9 3 18 8 26c9 3 18 5 29 5c36 0 75 -15 149 -53c22 -12 34 -28 35 -49c24 -11 48 -16 73 -16c160 0 270 173 387 467c32 80 61 142 86 187l-180 -42c-35 11 -39 23 -42 80
c0 18 3 19 55 31c81 21 170 31 268 31c73 0 150 -6 232 -17z" />
    <glyph glyph-name="K" unicode="K" horiz-adv-x="651" 
d="M697 595l-5 -19c-122 -64 -161 -80 -221 -89c-36 -24 -58 -34 -213 -109c21 -35 27 -53 27 -72c11 -12 35 -48 70 -108c27 -46 58 -76 91 -90c0 -40 -3 -49 -21 -52h-39c-57 54 -72 79 -172 259l-1 38c1 14 8 24 19 32h-14c-14 -21 -38 -65 -73 -133
c-29 -55 -57 -97 -83 -126c-3 -24 -9 -35 -58 -117c-12 -6 -22 -9 -30 -9c-13 12 -20 25 -20 38c0 12 4 25 31 67c7 12 10 24 11 35c18 11 32 34 42 71c11 37 24 61 40 73c59 106 150 263 273 472c0 36 5 47 36 47s50 -19 58 -60c0 -14 -64 -105 -93 -144
c-31 -43 -52 -78 -63 -106l4 -3c143 65 330 134 363 134c24 0 38 -10 41 -29z" />
    <glyph glyph-name="L" unicode="L" horiz-adv-x="536" 
d="M574 775c-6 -41 -21 -76 -45 -104c-66 -57 -89 -82 -104 -119c-81 -85 -191 -223 -328 -413c0 -2 -1 -4 -16 -44c0 -10 1 -10 115 -18c69 0 117 19 144 57c56 23 65 26 79 26c29 0 46 -18 46 -48c0 -33 -28 -63 -77 -77c-41 -11 -67 -23 -78 -35
c-65 -15 -121 -23 -168 -23c-62 0 -117 13 -164 38c-4 6 -5 9 -15 69c53 90 140 210 261 360c127 158 215 277 265 356c7 17 17 25 30 25c20 0 46 -25 55 -50z" />
    <glyph glyph-name="M" unicode="M" horiz-adv-x="955" 
d="M1021 751c0 -44 -8 -62 -70 -190c-53 -131 -110 -240 -170 -326c0 -18 -6 -31 -23 -52c-20 -24 -20 -31 -20 -53c-12 -9 -20 -25 -24 -48c-3 -23 -10 -38 -20 -47c0 -28 -9 -29 -78 -35c-8 13 -12 26 -12 39c0 19 9 44 28 77c21 37 33 63 36 80l31 30
c71 125 144 276 217 452c0 3 -4 5 -13 5c-8 -30 -18 -40 -100 -100c-27 -24 -68 -64 -123 -121c-54 -57 -96 -98 -125 -123c-100 -132 -101 -134 -121 -152c-4 2 -8 3 -12 3l-42 -12c-17 0 -27 13 -27 38c0 17 8 36 23 58c42 64 42 64 73 150c14 39 28 70 41 93
c0 9 0 14 3 25c0 3 -1 7 -3 10c-31 0 -56 -22 -352 -326c-3 -17 -16 -37 -37 -62c-23 -27 -37 -47 -41 -60c-28 -44 -54 -64 -80 -64c-21 0 -37 16 -46 47c3 28 11 37 82 87c48 78 75 105 339 369c42 29 57 44 187 174c35 -5 52 -21 52 -47c-11 -99 -26 -171 -43 -218l4 -4
c294 267 330 300 418 352c43 -10 47 -24 48 -49z" />
    <glyph glyph-name="N" unicode="N" horiz-adv-x="776" 
d="M830 756c-44 -64 -53 -82 -142 -241c-12 -18 -53 -79 -74 -110c-32 -68 -67 -126 -105 -175c-45 -89 -86 -157 -121 -204c-3 3 -7 4 -10 4c-13 -5 -28 -11 -29 -11c-17 0 -33 41 -33 85c0 15 7 133 15 248c0 16 -2 30 -5 43c-21 -15 -47 -43 -77 -85
c-30 -41 -57 -69 -80 -84c-10 -21 -29 -48 -57 -80s-47 -58 -56 -77c-11 -6 -24 -18 -41 -35c-27 -28 -41 -38 -56 -38c-9 0 -13 5 -13 15c29 43 96 134 200 271c85 113 148 205 191 277c7 7 14 10 23 10c30 0 52 -30 52 -71c0 -12 -3 -77 -11 -115c-9 -41 -14 -70 -14 -87
c0 -14 2 -27 5 -40c-7 -8 -10 -18 -10 -31c0 -1 3 -37 4 -43c0 -5 -1 -10 -2 -14c77 87 173 227 289 420c14 63 58 134 131 212c18 0 19 -1 26 -44z" />
    <glyph glyph-name="O" unicode="O" horiz-adv-x="597" 
d="M638 418c0 -285 -258 -419 -457 -419c-109 0 -149 17 -180 65c-3 4 -17 32 -42 85c0 174 95 330 301 468l140 75c0 14 -8 21 -24 21c-7 0 -15 -2 -24 -5c-63 -6 -103 -33 -119 -80c-27 13 -40 25 -40 37c0 1 4 14 14 47c0 5 -2 9 -6 13c50 49 104 74 161 75
c144 0 276 -191 276 -382zM557 439c0 71 -16 128 -49 173l-16 -22c-213 -38 -440 -246 -440 -402c0 -66 41 -103 115 -103c65 4 71 4 104 4c193 72 286 186 286 350z" />
    <glyph glyph-name="P" unicode="P" horiz-adv-x="721" 
d="M370 349h-22l-50 12c-23 38 -28 44 -35 44c-3 0 -7 -1 -10 -3c-145 -198 -153 -213 -228 -351c-24 -47 -28 -50 -45 -53c-11 0 -21 9 -30 27c3 50 51 138 435 713c85 36 146 58 217 62l90 -21c53 -41 79 -94 79 -158c0 -109 -185 -272 -401 -272zM696 665l-20 32
c-23 11 -48 17 -76 17c-86 0 -186 -52 -191 -99c-9 -18 -31 -48 -64 -90c-29 -36 -47 -66 -55 -90c9 6 17 9 24 9c9 0 20 -7 34 -20c14 -12 26 -18 35 -18c134 0 252 66 309 177c6 7 9 17 9 28c-5 46 -5 47 -5 54z" />
    <glyph glyph-name="Q" unicode="Q" horiz-adv-x="438" 
d="M461 502c0 -128 -34 -240 -116 -378c-65 -64 -69 -68 -69 -98c0 -14 8 -51 20 -112l-2 -2c39 -103 41 -109 48 -125c-9 -16 -19 -24 -28 -24c-21 0 -49 28 -53 46c-3 17 -11 38 -23 64l-23 152c-8 7 -17 10 -28 10c-27 -4 -39 -5 -45 -5c-22 0 -105 50 -128 121
c-26 31 -39 83 -39 155c0 145 43 234 163 344c41 38 70 69 87 93c21 29 51 48 90 55c71 0 103 -64 146 -296zM403 606c-29 73 -59 109 -92 109c-13 0 -26 -7 -38 -21c-17 -2 -33 -16 -46 -42c-26 -51 -26 -51 -70 -95c-7 -7 -15 -25 -24 -52c-14 0 -20 -2 -27 -17
c-7 -13 -11 -19 -14 -19c-39 -71 -59 -137 -59 -197c1 -1 8 -26 20 -72c53 -71 53 -71 78 -71c9 -13 20 -19 34 -19c12 0 24 5 37 14c0 29 0 30 -10 183c0 58 14 108 31 108c12 0 27 -19 44 -56c-6 -25 -9 -54 -9 -88c0 -7 2 -47 6 -120c17 0 23 5 74 71
c52 89 78 181 78 278c0 37 -4 73 -13 106z" />
    <glyph glyph-name="R" unicode="R" horiz-adv-x="730" 
d="M772 705c0 -27 -12 -68 -37 -121c-21 -17 -49 -48 -83 -91c-33 -43 -62 -74 -87 -93c-13 -3 -29 -14 -47 -33c-21 -21 -37 -34 -48 -39c115 -163 128 -181 171 -211c3 3 7 5 11 5c23 -8 28 -10 29 -10c18 -14 18 -16 18 -94c-34 -26 -38 -29 -47 -29
c-11 0 -12 0 -109 106c-35 38 -57 74 -64 107c-11 6 -23 22 -37 49c-10 19 -24 28 -41 28c-5 0 -5 0 -84 -34c-32 -13 -60 -20 -85 -20c-21 11 -24 20 -40 85c-107 -165 -116 -179 -152 -225v-9c0 -13 -31 -28 -64 -28c-4 0 -4 1 -18 24c6 21 24 50 55 87s50 66 57 88
c21 39 54 93 101 162c91 135 149 231 178 337c5 6 10 9 16 9c20 -7 36 -13 38 -13l139 58c13 2 118 12 119 12c64 0 111 -45 111 -107zM686 719c-12 3 -25 5 -39 5c-27 0 -65 -8 -114 -23c-71 -57 -77 -61 -96 -61c-11 0 -22 4 -34 12c-18 -61 -32 -83 -166 -279h9
c15 15 34 22 59 22c18 0 27 -2 107 -17c183 121 264 221 274 341z" />
    <glyph glyph-name="S" unicode="S" horiz-adv-x="741" 
d="M775 769c12 -11 18 -23 18 -37c0 -11 -3 -21 -24 -78c-34 -29 -59 -44 -75 -44c-25 0 -48 27 -48 56c0 9 3 17 8 24c-107 0 -251 -36 -449 -141l-11 5c-42 -26 -84 -57 -125 -94c25 -16 64 -28 116 -37c124 -21 188 -39 433 -135c5 -4 13 -14 22 -31c8 -14 18 -23 30 -27
c-15 -44 -51 -80 -108 -107c-49 -20 -99 -40 -148 -60c-222 -51 -283 -63 -371 -63c-29 12 -46 40 -53 84c9 53 53 89 131 109c9 -2 9 -3 21 -47c-26 -26 -26 -28 -26 -47c9 -5 19 -7 29 -7c11 0 26 4 45 11c20 8 35 12 45 12c8 0 15 -2 22 -5c208 60 234 69 287 110
c-22 22 -57 39 -105 51c-65 16 -103 27 -114 32c-6 -2 -12 -3 -19 -3c-9 0 -24 4 -43 13c-21 9 -30 11 -48 11c-214 52 -238 62 -252 109l-15 48c2 19 15 32 39 40c27 9 44 20 50 33c358 185 453 228 641 248c23 0 41 -7 97 -33z" />
    <glyph glyph-name="T" unicode="T" horiz-adv-x="657" 
d="M703 753c0 -24 -10 -41 -29 -51h-20c-49 -7 -51 -7 -88 -7c-97 -38 -113 -44 -141 -50c-24 -51 -66 -118 -125 -201c-109 -150 -131 -186 -219 -359c-16 -2 -28 -17 -36 -45c-8 -27 -22 -41 -42 -41c-33 0 -49 11 -49 34c26 36 43 74 52 113c72 96 168 254 287 475
c-28 0 -29 0 -142 -11c-17 0 -32 2 -46 6c-8 14 -11 28 -11 43c0 29 8 43 25 43c8 -1 20 -3 28 -3s14 2 19 7c181 20 345 51 494 94c17 0 23 -11 43 -47z" />
    <glyph glyph-name="U" unicode="U" horiz-adv-x="691" 
d="M739 676c-25 -17 -30 -28 -62 -109c-180 -313 -289 -440 -452 -519c-18 -30 -34 -34 -143 -48c-82 18 -130 105 -130 230c0 175 54 262 292 570c4 1 8 2 12 2c24 0 62 -40 62 -66c0 -13 -7 -27 -20 -40c-155 -145 -179 -179 -238 -343c-17 -52 -26 -99 -26 -140
c0 -87 26 -134 72 -134c17 0 42 10 74 31c35 22 59 35 73 38c111 70 142 111 353 447c18 77 19 83 19 101c0 3 0 7 -6 44c0 18 16 22 48 22c63 -61 67 -65 72 -86z" />
    <glyph glyph-name="V" unicode="V" horiz-adv-x="561" 
d="M600 778c0 -59 -14 -70 -157 -152l-117 -139c-154 -243 -216 -350 -278 -474c-5 5 -10 7 -15 7s-12 -4 -20 -13c-8 -8 -14 -12 -19 -12c-13 0 -33 26 -33 46c0 11 7 28 20 51s19 42 19 56c17 77 45 191 83 343c7 54 11 94 11 121s-2 52 -7 75c4 6 7 18 8 37
c4 42 13 54 36 54c25 0 53 -40 53 -87c-14 -105 -14 -120 -14 -152c-23 -85 -31 -129 -31 -174c160 222 160 223 409 435c23 0 31 -1 52 -22z" />
    <glyph glyph-name="W" unicode="W" horiz-adv-x="1058" 
d="M1131 744c-28 -77 -68 -134 -184 -264c-47 -53 -81 -95 -103 -126c-16 -13 -41 -40 -75 -81c-30 -37 -56 -63 -79 -78c-7 -18 -22 -41 -44 -69c-24 -31 -40 -54 -48 -70c-31 -25 -31 -30 -31 -46c-15 0 -21 0 -41 -10c-16 -9 -27 -13 -34 -13c-27 0 -41 27 -41 80
c2 16 12 138 12 140c0 14 -1 27 -3 39v190c-5 3 -11 4 -18 4c-15 0 -26 -6 -69 -35c-25 -29 -85 -90 -180 -181c-78 -75 -134 -139 -169 -193c-13 0 -14 0 -69 -13c-13 0 -23 8 -29 23c0 35 15 76 45 122c39 60 62 98 68 114l123 246c-5 7 -7 14 -7 19s5 13 14 23
c11 12 19 33 25 89c3 25 15 39 35 43c37 0 72 -26 77 -56c-4 -32 -16 -73 -37 -122c-25 -57 -40 -97 -45 -119c29 15 70 47 122 96c97 92 117 98 142 102c15 0 32 -11 49 -34c11 -45 16 -98 16 -160v-199l14 -5c347 352 383 389 418 500c16 51 31 84 75 100
c26 0 59 -26 71 -56z" />
    <glyph glyph-name="X" unicode="X" horiz-adv-x="744" 
d="M776 723c0 -32 -23 -61 -117 -125c-39 -26 -67 -52 -82 -77c-19 0 -37 -12 -52 -36c-17 -27 -31 -42 -44 -45c41 -191 146 -361 207 -361h26c16 0 24 -8 24 -25c0 -32 -12 -38 -80 -54c-74 29 -92 58 -215 263l-54 81c-16 0 -35 -12 -56 -35s-40 -35 -56 -35
c-17 -29 -51 -62 -103 -99s-86 -68 -101 -94c-27 -15 -47 -23 -62 -23c-19 0 -30 11 -35 33c-5 7 -8 14 -8 20c0 11 5 14 46 34c214 185 262 226 338 306c-9 13 -23 46 -42 98c-16 42 -34 72 -55 90c-9 25 -13 44 -13 57c0 19 8 33 24 40c54 -3 80 -31 117 -119
c15 -36 30 -61 44 -75h21c61 53 144 139 247 258c39 0 81 -40 81 -77z" />
    <glyph glyph-name="Y" unicode="Y" horiz-adv-x="526" 
d="M562 752c-7 -53 -16 -64 -144 -219c-47 -35 -96 -91 -146 -168c-60 -91 -105 -151 -134 -181c-108 -194 -108 -194 -131 -194c-7 0 -12 3 -17 10l-18 26c47 96 83 155 284 464c-5 3 -11 5 -18 5c-67 -17 -74 -18 -81 -18c-54 0 -143 30 -172 91c-6 43 -13 107 -22 193
c7 19 18 32 31 39c52 -5 64 -30 64 -127c0 -64 1 -73 6 -87c25 -19 55 -29 88 -29c38 0 95 17 170 51c53 24 112 85 179 183c5 2 10 3 15 3c23 0 46 -21 46 -42z" />
    <glyph glyph-name="Z" unicode="Z" horiz-adv-x="762" 
d="M810 742l-10 -43c-62 -62 -147 -126 -255 -193c-39 -39 -100 -92 -181 -157s-140 -115 -176 -151c0 -4 0 -5 -15 -30c0 -3 3 -6 10 -9c26 2 54 3 84 3c257 -10 281 -11 304 -11c61 0 114 4 161 13c13 -5 16 -9 44 -53c-59 -55 -65 -60 -65 -78c0 -7 2 -15 7 -23l-5 -10
c-7 19 -15 28 -26 28c-5 0 -9 -3 -13 -8c-3 -5 -8 -7 -13 -7c-2 0 -10 4 -25 11c-22 35 -55 44 -138 44c-38 0 -42 0 -141 9c-17 0 -32 -3 -44 -10c-76 0 -78 0 -236 -43c-33 -28 -60 -42 -81 -42c-30 0 -46 17 -47 51c0 2 1 30 3 49c168 168 385 362 650 583l-9 15
c-108 0 -122 1 -210 5c-55 0 -100 -8 -137 -25c-22 -4 -42 -7 -67 -10c-36 0 -43 16 -46 51c0 67 0 67 330 70c121 1 218 11 289 29c55 -23 58 -27 58 -58z" />
    <glyph glyph-name="bracketleft" unicode="[" horiz-adv-x="533" 
d="M565 112c0 -12 -8 -20 -26 -22c-31 -4 -51 -14 -59 -30c-45 -2 -118 -13 -217 -33c-93 -19 -166 -28 -218 -28h-41c-24 30 -36 75 -36 134c0 201 72 450 188 648c19 13 40 19 61 19c31 0 62 -11 140 -48c28 -12 52 -19 73 -20c15 -13 22 -29 22 -48c0 -17 -6 -34 -18 -53
c-8 -2 -17 -3 -25 -3c-14 0 -27 3 -39 9c-15 28 -49 42 -102 42c-85 -74 -139 -179 -162 -316c0 -20 -7 -49 -20 -86s-20 -66 -20 -87c0 -23 6 -47 18 -70c71 0 123 4 244 20c63 9 113 13 150 13c28 0 54 -2 78 -6c7 -22 9 -26 9 -35z" />
    <glyph glyph-name="backslash" unicode="\" horiz-adv-x="521" 
d="M554 2c-111 22 -189 96 -281 266c-31 58 -81 132 -150 221c-78 103 -130 176 -156 217c0 43 11 74 33 93l96 -31c121 -218 166 -290 239 -384c1 -31 16 -64 45 -101c38 -49 46 -59 52 -89c7 -17 31 -49 71 -96c33 -39 50 -71 51 -96z" />
    <glyph glyph-name="bracketright" unicode="]" horiz-adv-x="660" 
d="M704 686h-1l1 -22c0 -21 -7 -47 -20 -78c-43 -97 -43 -98 -43 -141c-16 -9 -24 -22 -24 -41c0 -5 1 -7 7 -45l-95 -325c-10 -9 -24 -14 -41 -14l-50 10c-25 33 -57 50 -98 50c-28 0 -73 -11 -135 -34c-33 -13 -60 -20 -80 -23c-15 -19 -40 -29 -73 -29c-13 0 -31 2 -53 5
l-44 46c26 36 46 46 193 113c29 3 42 7 138 38c35 10 64 15 89 15c21 0 42 -3 63 -9c21 48 41 113 58 196c22 105 37 172 46 200c-65 46 -96 51 -337 89c-42 70 -44 73 -44 87c0 7 2 13 6 20c24 9 43 14 58 14c13 0 26 -3 39 -8c167 -10 230 -22 297 -56c12 7 23 11 34 11
c14 0 32 -10 54 -29c26 -23 45 -36 55 -40z" />
    <glyph glyph-name="underscore" unicode="_" horiz-adv-x="941" 
d="M989 398c-7 -37 -28 -71 -63 -100c-9 2 -19 4 -28 4c-21 0 -27 -2 -101 -29c-12 0 -24 8 -35 25c-91 -23 -207 -37 -347 -42c-193 -8 -256 -13 -335 -27c-113 22 -127 38 -127 74l1 33c0 46 79 69 262 80c85 5 150 15 194 32c22 -6 46 -9 73 -9c49 0 86 7 198 38
c59 16 106 24 143 24c31 0 60 -4 89 -13z" />
    <glyph glyph-name="a" unicode="a" horiz-adv-x="592" 
d="M629 462c0 -29 -34 -139 -92 -244c-28 -46 -69 -117 -123 -213c3 -10 5 -19 5 -28c0 -32 -44 -86 -70 -86c-11 0 -26 9 -45 28c0 41 10 61 79 162c11 20 19 46 22 77c-99 -49 -117 -60 -150 -82c-12 -11 -32 -18 -61 -21s-49 -8 -60 -16h-26c-34 0 -63 12 -87 36
c-37 48 -57 86 -58 115c22 149 200 273 502 351c93 -2 161 -34 164 -79zM541 443l-13 20c-19 4 -39 6 -59 6c-82 0 -156 -30 -277 -95c-102 -55 -160 -132 -160 -211c0 -25 32 -55 69 -55c160 0 250 93 429 297z" />
    <glyph glyph-name="b" unicode="b" horiz-adv-x="455" 
d="M486 755c-9 -32 -33 -69 -72 -110c-45 -47 -72 -81 -83 -101c-55 -68 -56 -70 -56 -82c0 -5 1 -9 4 -14c87 -36 143 -123 143 -227c0 -25 -3 -51 -8 -76c-45 -90 -146 -145 -258 -145c-31 0 -55 4 -77 13l-96 64c-10 9 -15 20 -15 33c2 19 3 30 3 39c19 13 36 33 52 61
s31 47 44 58c107 178 210 328 311 451c33 78 34 80 72 80zM223 384c-13 -19 -35 -45 -64 -80c-15 -27 -48 -92 -100 -195c5 -20 14 -25 60 -36c19 -6 37 -9 55 -9c55 0 114 34 177 101c9 17 13 36 13 59c0 78 -63 149 -141 160z" />
    <glyph glyph-name="c" unicode="c" horiz-adv-x="556" 
d="M572 211c-14 -71 -91 -139 -184 -166c-40 -7 -78 -11 -114 -11c-111 0 -193 33 -246 99c-29 47 -44 88 -44 124c0 125 193 275 378 293c15 3 39 7 70 10c34 0 54 -15 61 -46c-4 -22 -20 -45 -48 -69l-63 15l-4 -5l-21 10c-3 0 -6 -1 -9 -3h-26
c-112 0 -270 -137 -270 -234c0 -85 95 -134 267 -134c68 0 115 30 205 121l7 24c1 0 13 -8 41 -28z" />
    <glyph glyph-name="d" unicode="d" horiz-adv-x="702" 
d="M751 649c0 -19 -12 -42 -35 -70s-36 -51 -38 -69c-20 -9 -26 -16 -69 -80c-30 -33 -63 -75 -99 -127c-5 -114 -50 -194 -137 -241c0 -8 -2 -16 -6 -23c-15 -28 -22 -45 -22 -51s2 -12 5 -18c-5 -8 -5 -18 -5 -39c0 -16 -7 -23 -19 -23c-23 0 -33 12 -40 67
c3 13 4 17 4 20c0 9 -4 16 -13 20c-34 -4 -83 -9 -108 -9c-28 0 -50 4 -68 14c-67 0 -150 46 -150 138c0 45 31 101 94 170c115 96 163 115 250 119c13 0 30 -2 132 -15c89 0 104 25 251 255l30 19c39 -26 40 -26 43 -57zM448 359c-15 5 -33 8 -53 8
c-63 0 -170 -24 -212 -55c-15 -11 -30 -18 -43 -23c-63 -22 -118 -91 -124 -154c0 -40 67 -68 162 -68c67 0 118 18 153 53c9 28 22 58 41 90c57 95 66 113 76 149z" />
    <glyph glyph-name="e" unicode="e" horiz-adv-x="510" 
d="M521 250c3 -9 4 -17 4 -25c0 -32 -12 -46 -77 -105c-17 -15 -30 -30 -37 -44c-45 -39 -99 -58 -164 -58c-49 0 -95 11 -138 34c-56 19 -124 110 -124 159c0 148 205 350 337 350c21 0 42 -5 63 -14c43 -4 74 -27 92 -68c-10 -87 -117 -164 -241 -175c-40 0 -45 10 -54 64
c10 5 14 6 84 12c31 5 83 31 135 84c-27 19 -54 29 -83 29c-83 0 -190 -105 -278 -263c7 -79 92 -146 187 -146c17 0 34 2 50 7c47 0 48 0 171 85c1 13 6 21 27 34c19 11 29 24 32 39z" />
    <glyph glyph-name="f" unicode="f" horiz-adv-x="583" 
d="M562 521c-7 -2 -12 -5 -17 -10c-27 8 -31 11 -31 24c-2 9 -8 14 -17 14l-34 -1c-5 -6 -18 -11 -38 -16c-13 -3 -21 -12 -22 -25c-36 -25 -143 -149 -145 -199c37 0 39 0 169 16c15 0 29 -4 42 -12c-20 -29 -36 -38 -63 -38c-19 -11 -53 -18 -101 -22
c-45 -4 -77 -13 -96 -26c-183 -379 -186 -385 -219 -390c-18 0 -29 9 -33 27c0 8 4 14 12 19c28 14 64 83 100 175c33 88 58 146 73 173c-18 8 -27 22 -27 43c0 10 9 21 26 33c11 -2 19 -3 26 -3c8 0 13 1 15 4c152 280 207 332 380 332c22 0 65 -26 65 -54
c-13 -51 -13 -51 -65 -64z" />
    <glyph glyph-name="g" unicode="g" horiz-adv-x="711" 
d="M709 348c-16 0 -27 -2 -33 -7c-6 4 -12 18 -18 43c-5 22 -16 27 -34 27c-58 9 -63 10 -75 10c-18 0 -32 -5 -43 -14c-56 -4 -76 -20 -162 -92c-7 -29 -11 -43 -11 -46c0 -10 7 -15 21 -15c93 0 172 39 222 109c9 6 25 9 48 9c0 -9 5 -21 15 -37c11 -15 16 -27 16 -34
c0 -9 -6 -18 -18 -26c-20 -6 -33 -21 -40 -45c-8 -29 -17 -47 -26 -55c-44 -131 -47 -135 -65 -153c-52 -220 -173 -362 -310 -362c-27 0 -28 0 -121 44c-27 13 -43 30 -50 51c-47 24 -70 58 -77 109c0 14 6 23 20 27c69 -3 78 -4 78 -27c0 -1 -16 -35 -18 -39
c0 -24 101 -92 172 -96c66 22 90 35 105 70c60 53 74 86 161 310c-1 3 -2 7 -2 11c0 1 7 30 12 45c0 9 -6 15 -18 19c-36 -4 -61 -7 -100 -10c-25 0 -48 5 -67 14c-30 31 -45 59 -45 84c0 12 3 23 10 34c10 61 48 95 175 166c48 15 93 22 136 22c73 0 132 -22 175 -66
c18 -41 19 -44 19 -49c0 -21 -18 -31 -52 -31z" />
    <glyph glyph-name="h" unicode="h" horiz-adv-x="661" 
d="M649 93c-19 -75 -48 -100 -112 -102c-26 0 -44 25 -44 62c0 19 5 44 16 73c46 126 54 150 63 226l-32 17c-228 -70 -233 -76 -388 -264c-75 -86 -94 -102 -110 -102c-15 0 -25 9 -30 26v20c313 454 410 583 575 751c5 -2 13 -15 24 -38l-4 -33
c-157 -141 -212 -201 -263 -285c-34 -34 -41 -42 -41 -64c0 -9 3 -19 8 -30c44 0 52 1 72 13c47 28 133 60 180 60c44 0 80 -25 80 -57c0 -15 -11 -45 -34 -90c-11 -22 -19 -42 -23 -61l-8 -90c13 2 23 3 30 3c13 0 16 -1 41 -35z" />
    <glyph glyph-name="i" unicode="i" horiz-adv-x="435" 
d="M440 734c0 -49 -10 -75 -46 -105c-63 31 -70 35 -74 56c7 72 11 94 31 115c31 0 35 -4 89 -66zM456 98c2 -1 3 -3 3 -5c0 -5 -5 -13 -16 -24c-15 0 -28 -10 -39 -22c-21 -22 -36 -33 -45 -33c-5 0 -10 1 -15 4c-76 -26 -147 -39 -212 -39c-90 0 -156 16 -156 81
c0 15 4 38 11 70c21 35 61 89 121 160c58 69 98 125 120 168h43c19 -3 21 -13 23 -42c0 -49 -24 -83 -101 -169c-19 -22 -32 -42 -40 -61c-51 -69 -58 -79 -58 -97c0 -10 3 -20 9 -30c29 -3 59 -5 90 -5c101 0 188 15 262 44z" />
    <glyph glyph-name="j" unicode="j" horiz-adv-x="507" 
d="M540 543c2 -4 3 -8 3 -12c0 -13 -21 -30 -39 -30c-7 0 -14 3 -21 8c-25 22 -30 26 -40 27c3 4 5 8 5 13c0 1 -9 33 -10 33c0 14 13 27 28 27c26 -6 39 -9 44 -9zM525 417c0 -9 -5 -17 -14 -26c-36 -30 -97 -147 -106 -220c-19 -69 -38 -138 -58 -205
c-36 -100 -101 -170 -155 -170c-79 0 -186 63 -227 137c5 24 17 36 36 36c46 -9 85 -43 93 -81c-1 -2 -2 -4 -2 -5c0 -14 41 -29 73 -29c52 0 108 67 136 160c93 384 98 403 165 452c35 0 59 -27 59 -49z" />
    <glyph glyph-name="k" unicode="k" horiz-adv-x="547" 
d="M543 30c-6 -49 -22 -76 -48 -82c-40 12 -53 26 -136 129c-16 17 -34 30 -54 39c-91 -44 -101 -48 -130 -48c-21 0 -22 0 -38 37c-5 10 -10 15 -16 15c-7 0 -14 -5 -23 -16c0 -7 -4 -15 -12 -23c-17 -17 -26 -30 -26 -38c-26 -17 -27 -17 -33 -17c-13 0 -27 24 -27 36
c0 7 386 626 426 686c20 -1 42 -22 47 -40c-17 -43 -21 -50 -122 -221c20 -8 29 -9 96 -18c54 -31 60 -35 63 -54c0 -113 -17 -144 -134 -250c92 -111 93 -111 116 -125l18 36c14 -1 20 -10 33 -46zM438 365c0 20 -14 30 -41 30c-70 0 -160 -81 -183 -144
c-30 -20 -40 -35 -55 -70c24 24 54 36 89 36c15 0 36 -3 62 -8c73 51 124 115 128 156z" />
    <glyph glyph-name="l" unicode="l" horiz-adv-x="411" 
d="M427 736c-11 -14 -24 -38 -39 -71c-14 -33 -27 -56 -38 -70c-39 -32 -47 -41 -115 -118l-158 -145c-11 -45 -26 -179 -26 -196c0 -6 2 -13 6 -22c23 0 52 13 87 40s62 42 81 43c13 -5 20 -13 21 -25c-35 -43 -91 -93 -170 -152c-9 -5 -19 -7 -28 -7c-40 2 -50 27 -50 107
c0 22 -1 39 -4 48c8 36 12 66 12 92c0 19 0 20 -22 70c-3 7 -4 13 -4 20c0 9 3 17 9 24c30 0 46 10 46 30c44 138 201 305 347 376c21 -8 36 -23 45 -44zM278 627c-56 -10 -106 -61 -120 -121c63 41 103 82 120 121zM164 515c-26 0 -30 -7 -30 -30c13 0 23 10 30 30z" />
    <glyph glyph-name="m" unicode="m" horiz-adv-x="1000" 
d="M1035 521c-16 -90 -37 -142 -140 -371c-35 -24 -37 -39 -55 -147c-9 -6 -13 -7 -48 -7c-9 7 -13 16 -13 28c0 8 1 12 29 100c54 73 100 173 139 301c-15 21 -30 31 -47 31c-15 0 -31 -8 -49 -23l-18 -9c-5 -11 -11 -19 -18 -22c-33 -15 -43 -22 -56 -36
c-17 -32 -49 -62 -94 -90c-66 -40 -83 -53 -106 -82c-23 -8 -43 -28 -60 -60c-14 -28 -18 -32 -44 -37c-19 -53 -35 -58 -83 -65c-15 0 -22 6 -22 18c0 43 31 111 91 236c15 33 31 83 48 151c-144 -77 -188 -101 -213 -168c-118 -107 -135 -125 -161 -171
c-5 -13 -22 -33 -51 -60c-28 -27 -44 -53 -49 -79c-5 -2 -8 -3 -30 -3l-20 54c278 434 279 436 294 530c10 7 24 12 28 12c20 -22 39 -63 56 -122c120 98 156 117 191 121c11 -17 23 -29 34 -34c5 -15 8 -32 8 -51c0 -34 -9 -77 -44 -202c112 67 115 69 296 214
c58 45 142 97 160 97c9 0 11 -3 47 -54z" />
    <glyph glyph-name="n" unicode="n" horiz-adv-x="607" 
d="M632 433c0 -92 -19 -143 -137 -394c0 -57 -5 -76 -29 -84c-15 3 -25 13 -31 31c1 54 17 90 75 201c12 25 22 50 31 76c0 25 1 29 23 86c6 17 9 33 9 46c0 21 -6 44 -19 69c-72 0 -101 -18 -209 -97c-20 -15 -43 -28 -68 -39c-8 -22 -16 -30 -95 -105
c-136 -166 -139 -172 -156 -204c-1 -2 -3 -2 -5 -2c-3 0 -8 2 -43 20c-3 7 -4 14 -4 21c0 26 3 31 96 157c148 212 179 255 234 353c31 0 54 -27 69 -80c30 0 61 6 92 19c59 24 94 36 106 36c41 0 61 -36 61 -110z" />
    <glyph glyph-name="o" unicode="o" horiz-adv-x="508" 
d="M516 357c-10 -112 -72 -207 -185 -284c-128 -58 -156 -68 -200 -68c-34 0 -64 12 -90 36c-21 7 -25 14 -49 75c5 129 106 251 302 366l-10 25c-125 -27 -127 -28 -141 -59c-5 2 -8 4 -10 6c1 0 2 1 3 2c25 45 52 64 148 101c118 0 178 -33 206 -113c5 -19 14 -48 26 -87z
M367 468v43h-82zM463 409c0 53 -35 91 -85 91c-8 0 -17 -1 -26 -3c4 -25 4 -30 4 -90c-2 -1 -30 -15 -43 -15c-5 0 -12 1 -18 4c-148 -105 -221 -162 -235 -281c14 -22 34 -36 59 -43c117 22 145 30 180 50c96 56 160 168 164 287z" />
    <glyph glyph-name="p" unicode="p" horiz-adv-x="770" 
d="M808 250c-96 -121 -208 -179 -360 -186c-6 0 -13 2 -20 6c-30 19 -36 22 -44 22c-10 0 -18 -7 -24 -21c-15 -23 -60 -80 -136 -173c-57 -70 -96 -131 -118 -184c-34 -31 -49 -54 -110 -165c-9 -4 -16 -6 -22 -6c-8 0 -20 20 -20 35c0 24 13 51 49 102c20 27 32 50 37 67
c35 39 78 99 130 182c54 87 96 148 127 184c24 28 51 70 82 126c72 130 86 149 112 149c5 0 11 -1 16 -3l25 -43c-5 -12 -14 -27 -27 -46c-44 -65 -56 -88 -56 -123c0 -9 1 -19 4 -29c13 -7 28 -11 43 -11c32 0 48 7 125 47l103 85c10 10 12 16 18 65c-63 53 -81 65 -111 65
c-11 0 -22 -3 -33 -9c-6 5 -15 7 -44 7c-18 0 -20 7 -22 31c0 42 15 43 78 50c73 0 139 -38 176 -102c19 -19 29 -44 29 -77c0 -16 -2 -31 -7 -45z" />
    <glyph glyph-name="q" unicode="q" horiz-adv-x="466" 
d="M390 120c-209 -316 -278 -439 -278 -496c-14 -19 -33 -57 -58 -113c-9 -13 -21 -20 -36 -20c-7 0 -14 1 -22 4l-11 28c79 166 85 179 99 220c105 169 155 260 185 335c-15 -9 -18 -9 -70 -13c-16 -2 -28 -7 -36 -15c-105 0 -159 26 -176 85c-6 20 -10 41 -15 62
c10 13 11 18 12 66c67 98 159 148 278 154c40 0 61 -5 174 -38c34 -35 57 -71 57 -101c0 -40 -16 -59 -103 -158zM362 319c-20 15 -49 28 -69 28c-98 0 -174 -33 -239 -102c-8 -28 -10 -41 -11 -60c0 -38 30 -53 73 -53h69c120 51 166 78 166 103c0 12 -6 23 -30 58
c32 12 36 15 41 26z" />
    <glyph glyph-name="r" unicode="r" horiz-adv-x="601" 
d="M630 489c0 -28 -5 -43 -23 -63c-40 45 -76 68 -108 68c-56 0 -95 -25 -168 -102c-16 -14 -31 -24 -46 -31c-63 -73 -142 -184 -239 -334c-23 0 -23 0 -56 -8c-14 0 -17 7 -20 30c0 21 12 47 37 79c34 45 34 46 132 317c9 5 18 7 25 7c17 0 21 -4 30 -31
c5 -12 13 -18 24 -18c7 0 16 3 26 10c117 115 195 160 284 160c29 0 30 0 82 -62c4 -7 11 -14 20 -22z" />
    <glyph glyph-name="s" unicode="s" horiz-adv-x="620" 
d="M654 495c-1 -9 -10 -17 -25 -22c-19 -7 -30 -14 -35 -20c-27 17 -32 23 -32 37c-29 9 -59 14 -88 14c-68 0 -146 -29 -235 -87c-21 0 -33 -10 -43 -38c20 -24 42 -31 118 -45c13 -3 26 -7 37 -13c51 -10 64 -19 187 -111c16 -27 24 -51 24 -74c0 -60 -55 -118 -158 -127
h-183c-50 13 -101 24 -152 36c-60 21 -93 51 -104 106c0 5 1 6 33 27c67 0 76 0 86 -16c-5 -19 -16 -35 -31 -49c77 -31 154 -47 231 -47c117 0 206 34 206 86c0 39 -68 79 -205 120c-87 26 -147 55 -180 88c0 52 0 53 135 138c129 64 160 78 223 78c15 0 30 -1 45 -4
c6 2 13 3 20 3c19 0 26 -2 90 -21c24 -14 36 -34 36 -59z" />
    <glyph glyph-name="t" unicode="t" horiz-adv-x="431" 
d="M449 482c-11 -21 -36 -35 -75 -40c-58 -7 -78 -11 -97 -25c-60 -9 -79 -41 -130 -139c-13 -25 -24 -43 -34 -54c-3 -11 -13 -32 -31 -63c-15 -25 -22 -49 -22 -70c24 -15 49 -23 74 -23c46 0 77 15 228 111c20 11 38 18 55 20c1 -1 1 -3 1 -5l-8 -33c-3 -5 -11 -8 -24 -9
s-21 -8 -23 -19c-49 -8 -76 -28 -79 -60c-41 -47 -99 -70 -175 -70c-21 0 -41 2 -60 6c-34 17 -56 45 -67 84c17 68 29 91 146 294c-48 21 -48 22 -52 56c0 19 15 29 46 32c42 4 68 9 77 14l171 244c7 9 15 14 25 14c25 0 49 -30 49 -57c0 -13 -10 -27 -29 -41
c-22 -17 -35 -31 -39 -44l-77 -106c12 -6 25 -9 39 -9c58 6 66 6 68 6c20 0 34 -5 43 -14z" />
    <glyph glyph-name="u" unicode="u" horiz-adv-x="603" 
d="M613 443c-10 -71 -41 -118 -148 -252c-12 -4 -14 -6 -31 -23c-1 -1 -2 -2 -5 -3c-40 -51 -94 -90 -163 -119c-36 -24 -78 -36 -125 -36c-91 0 -141 49 -151 149c6 70 28 100 195 298c4 2 8 2 13 2c29 0 43 -11 43 -37c0 -9 -2 -19 -8 -28c-37 -22 -51 -39 -113 -123
c-11 -15 -24 -29 -37 -40c-16 -19 -26 -38 -31 -59c-9 -5 -13 -12 -13 -20l11 -34c19 -38 33 -57 65 -57c146 0 267 80 403 268c7 19 11 37 12 54l-1 47c20 35 35 47 50 47c5 0 9 -1 14 -3z" />
    <glyph glyph-name="v" unicode="v" horiz-adv-x="538" 
d="M526 488c-53 -13 -66 -16 -80 -26c-121 -86 -242 -222 -365 -408l-25 -24c-2 0 -3 2 -6 4c-14 0 -36 -8 -52 -17l-18 30l72 423c-3 11 -4 21 -4 30c0 15 3 29 10 42c10 4 20 6 28 6c12 0 22 -4 30 -11c0 -91 -2 -109 -11 -136c0 -50 0 -51 -5 -72c-5 -19 -7 -35 -7 -50
c0 -18 3 -40 8 -65c212 233 296 308 415 361c28 -1 42 -12 42 -34c0 -33 -10 -46 -32 -53z" />
    <glyph glyph-name="w" unicode="w" horiz-adv-x="734" 
d="M734 488c-20 -30 -51 -88 -94 -173c-37 -73 -70 -130 -100 -171c-22 -61 -70 -127 -90 -131c-11 0 -11 0 -40 85c-2 12 -3 32 -3 59v76c0 70 -15 132 -45 187c-191 -228 -272 -342 -330 -448c-15 0 -26 -2 -31 -7l-10 45c128 297 159 389 169 522l6 21c5 23 6 24 20 25
c17 0 27 -15 31 -44l-26 -170l14 -29c18 7 46 35 83 84c40 53 70 79 89 79c37 0 61 -61 61 -156v-45c7 -12 10 -28 10 -49c0 -33 13 -64 39 -93c69 94 124 191 164 292c10 10 20 32 30 65c5 15 13 25 24 32c6 19 12 29 19 29c2 0 19 -11 19 -34c0 -2 -1 -9 -9 -51z" />
    <glyph glyph-name="x" unicode="x" horiz-adv-x="647" 
d="M690 526c-29 -54 -61 -78 -188 -172c-33 -24 -57 -43 -73 -57c0 -145 33 -223 148 -265c4 -7 9 -20 9 -24c0 -10 -32 -16 -68 -17c-36 0 -94 53 -123 109c-18 38 -36 76 -55 115c-39 0 -45 -1 -59 -17c-30 -36 -32 -37 -60 -37c-24 -27 -30 -31 -212 -146
c-11 0 -14 3 -51 37c0 22 10 42 52 49c216 145 243 163 298 212c-13 21 -14 24 -42 114c-9 27 -20 49 -33 66c0 13 -4 27 -18 63c-5 12 -7 24 -7 34c0 26 12 40 41 40c11 0 21 -4 29 -12l67 -162c9 -5 14 -14 16 -25c0 -14 4 -41 28 -55c33 20 76 50 129 91
c96 73 118 87 133 89c19 0 32 -10 39 -30z" />
    <glyph glyph-name="y" unicode="y" horiz-adv-x="487" 
d="M519 406c0 -38 -3 -51 -40 -90c-31 -32 -48 -57 -53 -75c-154 -184 -283 -377 -388 -578c-5 -12 -33 -24 -52 -24c-13 0 -20 7 -20 21c0 25 5 33 32 63c108 192 198 342 270 449c-17 0 -19 -1 -52 -28c-11 0 -27 -3 -47 -10s-35 -10 -44 -10c-43 0 -80 53 -80 116
c0 77 48 186 86 195c42 -24 48 -28 49 -51c0 -20 -7 -27 -49 -67c0 -15 0 -16 -15 -79c0 -24 12 -36 35 -36c11 0 28 7 49 20s37 21 48 23c84 65 153 129 206 194c13 0 21 -4 65 -33z" />
    <glyph glyph-name="z" unicode="z" horiz-adv-x="627" 
d="M663 604c-2 -84 -78 -170 -334 -376c-28 -23 -56 -49 -84 -78c44 -28 81 -36 137 -36l54 2c20 0 36 -1 59 -7c8 11 12 13 30 13c17 -6 19 -6 35 -7c7 0 13 1 19 4c28 -19 33 -29 36 -54c0 -16 -11 -28 -33 -35l-314 17c-18 6 -36 9 -55 9c-27 0 -62 -8 -105 -25
s-77 -25 -100 -25c-11 0 -23 1 -35 4c-7 11 -10 22 -10 34c0 11 3 19 9 24c241 123 435 276 582 459c-26 36 -57 43 -139 43c-26 0 -57 -8 -92 -24c-39 -18 -91 -27 -132 -27c-13 0 -19 15 -21 47c0 5 1 11 4 15l36 19c45 2 112 11 200 26c93 16 137 22 207 26
c19 0 34 -16 46 -48z" />
    <glyph glyph-name="braceleft" unicode="{" horiz-adv-x="292" 
d="M312 747c0 -13 -14 -31 -42 -53c-33 -27 -53 -45 -59 -56c-7 -19 -16 -57 -27 -115c-9 -48 -21 -84 -34 -109l16 -63c-2 -17 -12 -40 -30 -69c-56 -81 -66 -99 -66 -129c0 -29 20 -54 59 -73c16 -2 19 -6 24 -36l3 -21c0 -9 -6 -14 -30 -23c-66 15 -127 72 -146 136
c24 76 56 134 96 175c6 10 9 19 9 27c0 17 -3 18 -48 41c-14 31 -15 39 -15 61c41 14 70 48 85 102c28 166 57 223 130 258c38 -1 75 -28 75 -53z" />
    <glyph glyph-name="braceright" unicode="}" horiz-adv-x="321" 
d="M335 349c-18 -6 -30 -21 -35 -45c-6 -27 -9 -32 -24 -45c0 -11 -1 -13 -28 -50c-9 -12 -12 -21 -12 -34c-57 -131 -57 -131 -151 -143c-27 -4 -48 -15 -63 -33c-15 0 -15 0 -44 46c12 32 35 63 69 93c9 -4 17 -6 26 -6c34 0 38 7 106 114c0 20 1 26 9 36
c15 19 18 28 18 51c-58 73 -77 108 -77 151c0 16 3 32 10 49c0 27 9 50 37 87c27 35 40 63 40 82c0 17 -7 34 -22 50c0 31 20 42 46 48c49 -19 70 -51 70 -105c0 -41 -13 -60 -105 -200l-15 -15c12 -31 32 -46 60 -46c43 4 49 5 59 5c23 -24 34 -45 34 -64
c0 -9 -3 -18 -8 -26z" />
    <glyph glyph-name="asciitilde" unicode="~" horiz-adv-x="600" 
d="M588 533c0 -62 -8 -87 -40 -105c-13 -10 -31 -29 -56 -57c-56 -64 -86 -85 -125 -86c-33 0 -48 16 -107 86c-33 39 -63 59 -92 59c-19 0 -38 -7 -58 -21c-44 -38 -55 -46 -67 -46c-20 0 -32 17 -32 44c0 90 34 100 181 109c75 -22 125 -60 148 -114c9 -10 19 -15 30 -15
c7 0 21 5 40 16c5 3 11 4 18 4l143 132c3 0 16 -5 17 -6z" />
    <glyph glyph-name="quotesinglbase" unicode="&#x201a;" 
 />
    <glyph glyph-name="quotedblbase" unicode="&#x201e;" 
 />
    <glyph glyph-name="ellipsis" unicode="&#x2026;" 
 />
    <glyph glyph-name="daggerdbl" unicode="&#x2021;" 
 />
    <glyph glyph-name="circumflex" unicode="&#x2c6;" 
 />
    <glyph glyph-name="perthousand" unicode="&#x2030;" 
 />
    <glyph glyph-name="guilsinglleft" unicode="&#x2039;" 
 />
    <glyph glyph-name="OE" unicode="&#x152;" 
 />
    <glyph glyph-name="quoteleft" unicode="&#x2018;" 
 />
    <glyph glyph-name="quoteright" unicode="&#x2019;" 
 />
    <glyph glyph-name="quotedblleft" unicode="&#x201c;" 
 />
    <glyph glyph-name="quotedblright" unicode="&#x201d;" 
 />
    <glyph glyph-name="endash" unicode="&#x2013;" horiz-adv-x="518" 
d="M534 414c3 -9 4 -17 4 -25c0 -30 -7 -40 -77 -104c-3 0 -192 14 -219 16c-39 0 -74 -5 -104 -16l-102 36c-37 16 -55 41 -55 75c0 56 26 87 73 87c11 -2 102 -10 103 -10c38 0 99 20 125 32c38 19 51 20 96 20c5 3 11 4 18 4c20 0 57 -20 111 -59z" />
    <glyph glyph-name="emdash" unicode="&#x2014;" horiz-adv-x="716" 
d="M754 417c3 -13 5 -25 5 -36c0 -45 -8 -56 -111 -150c-35 0 -88 4 -159 12c-70 8 -122 12 -156 12c-57 0 -107 -8 -150 -24c-187 60 -227 84 -227 161c0 80 38 125 106 125c69 -7 139 -15 150 -15c20 0 37 3 51 8c33 0 72 11 119 34c69 33 88 33 147 33c8 4 17 6 27 6
c37 0 69 -20 159 -86z" />
    <glyph glyph-name="tilde" unicode="&#x2dc;" 
 />
    <glyph glyph-name="guilsinglright" unicode="&#x203a;" 
 />
    <glyph glyph-name="oe" unicode="&#x153;" 
 />
    <glyph glyph-name="Ydieresis" unicode="&#x178;" 
 />
    <glyph glyph-name="nonbreakingspace" unicode="&#xa0;" 
 />
    <glyph glyph-name="currency" unicode="&#xa4;" 
 />
    <glyph glyph-name="guillemotleft" unicode="&#xab;" 
 />
    <glyph glyph-name="macron" unicode="&#xaf;" 
 />
    <glyph glyph-name="periodcentered" unicode="&#xb7;" 
 />
    <glyph glyph-name="guillemotright" unicode="&#xbb;" 
 />
    <glyph glyph-name="Agrave" unicode="&#xc0;" 
 />
    <glyph glyph-name="Aacute" unicode="&#xc1;" 
 />
    <glyph glyph-name="Acircumflex" unicode="&#xc2;" 
 />
    <glyph glyph-name="Atilde" unicode="&#xc3;" 
 />
    <glyph glyph-name="Egrave" unicode="&#xc8;" 
 />
    <glyph glyph-name="Ecircumflex" unicode="&#xca;" 
 />
    <glyph glyph-name="Edieresis" unicode="&#xcb;" 
 />
    <glyph glyph-name="Igrave" unicode="&#xcc;" 
 />
    <glyph glyph-name="Iacute" unicode="&#xcd;" 
 />
    <glyph glyph-name="Icircumflex" unicode="&#xce;" 
 />
    <glyph glyph-name="Idieresis" unicode="&#xcf;" 
 />
    <glyph glyph-name="Ograve" unicode="&#xd2;" 
 />
    <glyph glyph-name="Oacute" unicode="&#xd3;" 
 />
    <glyph glyph-name="Ocircumflex" unicode="&#xd4;" 
 />
    <glyph glyph-name="Otilde" unicode="&#xd5;" 
 />
    <glyph glyph-name="Ugrave" unicode="&#xd9;" 
 />
    <glyph glyph-name="Uacute" unicode="&#xda;" 
 />
    <glyph glyph-name="Ucircumflex" unicode="&#xdb;" 
 />
    <glyph glyph-name="divide" unicode="&#xf7;" 
 />
    <glyph glyph-name="ydieresis" unicode="&#xff;" 
 />
  </font>
</defs>
</svg>
