<?xml version="1.0" encoding="utf-8"?>
<!-- Generator: Adobe Illustrator 15.0.2, SVG Export Plug-In . SVG Version: 6.00 Build 0)  -->
<!DOCTYPE svg PUBLIC "-//W3C//DTD SVG 1.1//EN" "http://www.w3.org/Graphics/SVG/1.1/DTD/svg11.dtd">
<svg version="1.1"
	 id="svg2" inkscape:version="0.91 r13725" sodipodi:docname="sustainablesource.svg" inkscape:export-xdpi="299.84503" inkscape:export-ydpi="299.84503" xmlns:inkscape="http://www.inkscape.org/namespaces/inkscape" xmlns:sodipodi="http://sodipodi.sourceforge.net/DTD/sodipodi-0.dtd" xmlns:rdf="http://www.w3.org/1999/02/22-rdf-syntax-ns#" xmlns:svg="http://www.w3.org/2000/svg" xmlns:cc="http://creativecommons.org/ns#" xmlns:dc="http://purl.org/dc/elements/1.1/"
	 xmlns="http://www.w3.org/2000/svg" xmlns:xlink="http://www.w3.org/1999/xlink" x="0px" y="0px" width="237.29px" height="62px"
	 viewBox="0 75.835 237.29 62" enable-background="new 0 75.835 237.29 62" xml:space="preserve">
<sodipodi:namedview  pagecolor="#ffffff" bordercolor="#666666" borderopacity="1.0" id="base" fit-margin-right="0" inkscape:pageopacity="0.0" inkscape:pageshadow="2" inkscape:cy="138.26172" inkscape:zoom="2.8" inkscape:cx="91.162737" inkscape:document-units="px" inkscape:current-layer="layer1" showgrid="false" inkscape:window-width="2959" inkscape:window-height="1648" inkscape:window-x="49" inkscape:window-y="0" inkscape:window-maximized="1" fit-margin-top="0" fit-margin-left="0" fit-margin-bottom="0">
	</sodipodi:namedview>
<g id="layer1" transform="translate(-214.12823,-266.81396)" inkscape:groupmode="layer" inkscape:label="Layer 1">
	<rect id="rect3348" x="214.128" y="342.649" fill="#00002F" width="237.29" height="62"/>
	<g id="text3336" transform="translate(-9.9999998,1.1625977e-5)">
		<path id="path3340" inkscape:connector-curvature="0" fill="#00FF00" d="M270.578,387.899h-1.562L269,383.196
			c-1.094-0.021-2.188-0.146-3.281-0.375c-1.094-0.239-2.193-0.594-3.297-1.062v-2.812c1.062,0.666,2.135,1.172,3.219,1.516
			c1.094,0.334,2.219,0.507,3.375,0.517v-7.125c-2.303-0.375-3.979-1.01-5.031-1.906c-1.041-0.896-1.562-2.125-1.562-3.688
			c0-1.697,0.568-3.037,1.703-4.017c1.135-0.979,2.766-1.541,4.891-1.688v-3.672h1.562v3.625c0.969,0.041,1.906,0.146,2.812,0.312
			c0.906,0.156,1.791,0.375,2.656,0.656v2.733c-0.865-0.438-1.756-0.774-2.672-1.016c-0.906-0.24-1.838-0.381-2.797-0.422v6.672
			c2.365,0.365,4.104,1.016,5.219,1.953c1.115,0.938,1.672,2.219,1.672,3.844c0,1.76-0.594,3.15-1.781,4.172
			c-1.178,1.011-2.881,1.595-5.109,1.75L270.578,387.899L270.578,387.899z M269.015,371.166v-6.406
			c-1.209,0.135-2.131,0.479-2.766,1.031c-0.635,0.552-0.953,1.287-0.953,2.203c0,0.896,0.291,1.594,0.875,2.094
			C266.765,370.587,267.713,370.946,269.015,371.166z M270.578,374.166v6.766c1.322-0.178,2.318-0.553,2.984-1.125
			c0.678-0.572,1.016-1.328,1.016-2.266c0-0.916-0.322-1.646-0.969-2.188C272.974,374.812,271.963,374.416,270.578,374.166z"/>
		<path id="path3342" inkscape:connector-curvature="0" fill="#00FF00" d="M296.5,386.166v2.25h-0.969
			c-2.594,0-4.334-0.386-5.219-1.156c-0.875-0.771-1.312-2.307-1.312-4.609v-3.734c0-1.571-0.281-2.662-0.844-3.266
			s-1.584-0.906-3.062-0.906h-0.953v-2.233h0.953c1.49,0,2.51-0.298,3.062-0.892c0.562-0.604,0.844-1.682,0.844-3.233v-3.75
			c0-2.304,0.438-3.835,1.312-4.595c0.885-0.771,2.625-1.155,5.219-1.155h0.969v2.233h-1.062c-1.469,0-2.428,0.229-2.875,0.688
			c-0.447,0.459-0.672,1.422-0.672,2.891v3.875c0,1.636-0.24,2.822-0.719,3.562c-0.469,0.739-1.275,1.239-2.422,1.5
			c1.156,0.28,1.969,0.79,2.438,1.53c0.469,0.74,0.703,1.922,0.703,3.547v3.875c0,1.47,0.225,2.433,0.672,2.892
			c0.447,0.459,1.406,0.688,2.875,0.688h1.062V386.166z"/>
		<path id="path3344" inkscape:connector-curvature="0" fill="#FFFFFF" d="M314.625,366.212v2.719
			c-0.812-0.416-1.656-0.729-2.531-0.938s-1.781-0.312-2.719-0.312c-1.428,0-2.5,0.219-3.219,0.656
			c-0.709,0.438-1.062,1.094-1.062,1.969c0,0.666,0.256,1.193,0.766,1.578c0.51,0.375,1.537,0.734,3.078,1.078l0.984,0.219
			c2.041,0.438,3.49,1.057,4.344,1.859c0.865,0.791,1.297,1.899,1.297,3.328c0,1.625-0.646,2.911-1.938,3.858
			c-1.281,0.946-3.047,1.422-5.297,1.422c-0.938,0-1.916-0.094-2.938-0.28c-1.01-0.179-2.078-0.447-3.203-0.812v-2.969
			c1.062,0.553,2.109,0.969,3.141,1.25c1.031,0.271,2.053,0.406,3.062,0.406c1.354,0,2.396-0.229,3.125-0.688
			c0.729-0.47,1.094-1.125,1.094-1.97c0-0.78-0.266-1.381-0.797-1.797c-0.521-0.416-1.672-0.817-3.453-1.203l-1-0.233
			c-1.781-0.375-3.068-0.947-3.859-1.719c-0.791-0.781-1.188-1.851-1.188-3.203c0-1.646,0.584-2.916,1.75-3.812
			c1.166-0.896,2.822-1.345,4.969-1.345c1.062,0,2.062,0.078,3,0.234C312.969,365.664,313.834,365.899,314.625,366.212z"/>
		<path id="path3346" inkscape:connector-curvature="0" fill="#FFFFFF" d="M326.937,367.712c-1.541,0-2.76,0.604-3.656,1.812
			c-0.896,1.197-1.344,2.845-1.344,4.938s0.443,3.744,1.328,4.953c0.896,1.196,2.119,1.797,3.672,1.797
			c1.531,0,2.744-0.604,3.641-1.812s1.344-2.854,1.344-4.938c0-2.072-0.447-3.713-1.344-4.922
			C329.681,368.321,328.469,367.712,326.937,367.712z M326.937,365.274c2.5,0,4.463,0.812,5.891,2.438
			c1.428,1.625,2.141,3.875,2.141,6.75c0,2.865-0.713,5.115-2.141,6.75c-1.428,1.625-3.391,2.438-5.891,2.438
			c-2.51,0-4.479-0.812-5.906-2.438c-1.416-1.635-2.125-3.885-2.125-6.75c0-2.875,0.709-5.125,2.125-6.75
			C322.459,366.087,324.428,365.274,326.937,365.274z"/>
		<path id="path3348" inkscape:connector-curvature="0" fill="#FFFFFF" d="M339.422,376.291v-10.595h2.875v10.484
			c0,1.655,0.322,2.899,0.969,3.733c0.646,0.822,1.615,1.234,2.906,1.234c1.553,0,2.775-0.494,3.672-1.484
			c0.906-0.989,1.359-2.338,1.359-4.047v-9.922h2.875v17.5h-2.875v-2.688c-0.697,1.062-1.51,1.854-2.438,2.375
			c-0.916,0.51-1.984,0.766-3.203,0.766c-2.01,0-3.537-0.625-4.578-1.875S339.422,378.696,339.422,376.291z"/>
		<path id="path3350" inkscape:connector-curvature="0" fill="#FFFFFF" d="M370.172,368.384c-0.322-0.188-0.678-0.322-1.062-0.406
			c-0.375-0.094-0.791-0.141-1.25-0.141c-1.625,0-2.875,0.531-3.75,1.594c-0.865,1.053-1.298,2.568-1.298,4.547v9.219h-2.891v-17.5
			h2.891v2.719c0.604-1.062,1.392-1.85,2.359-2.358c0.969-0.521,2.146-0.781,3.531-0.781c0.197,0,0.416,0.017,0.656,0.047
			c0.24,0.021,0.506,0.058,0.797,0.109L370.172,368.384L370.172,368.384z"/>
		<path id="path3352" inkscape:connector-curvature="0" fill="#FFFFFF" d="M385.156,366.369v2.688c-0.812-0.447-1.631-0.781-2.453-1
			c-0.812-0.229-1.635-0.344-2.469-0.344c-1.865,0-3.312,0.594-4.344,1.781c-1.031,1.178-1.547,2.834-1.547,4.969
			s0.516,3.797,1.547,4.983c1.031,1.179,2.479,1.767,4.344,1.767c0.834,0,1.656-0.109,2.469-0.328
			c0.822-0.229,1.641-0.568,2.453-1.016v2.655c-0.803,0.375-1.635,0.656-2.5,0.845c-0.854,0.188-1.766,0.28-2.734,0.28
			c-2.635,0-4.729-0.828-6.281-2.483c-1.551-1.656-2.328-3.892-2.328-6.703c0-2.854,0.781-5.101,2.345-6.734
			c1.571-1.635,3.726-2.453,6.453-2.453c0.885,0,1.75,0.094,2.594,0.281C383.547,365.733,384.365,366.003,385.156,366.369z"/>
		<path id="path3354" inkscape:connector-curvature="0" fill="#FFFFFF" d="M405.125,373.728v1.406h-13.219
			c0.125,1.979,0.719,3.49,1.781,4.531c1.072,1.03,2.562,1.547,4.469,1.547c1.104,0,2.172-0.135,3.203-0.406
			c1.041-0.271,2.072-0.678,3.094-1.219v2.719c-1.031,0.438-2.088,0.771-3.172,1s-2.182,0.344-3.297,0.344
			c-2.791,0-5.006-0.812-6.641-2.438c-1.625-1.625-2.438-3.822-2.438-6.594c0-2.865,0.771-5.136,2.312-6.812
			c1.553-1.688,3.642-2.531,6.267-2.531c2.354,0,4.213,0.76,5.577,2.281C404.437,369.065,405.125,371.125,405.125,373.728z
			 M402.25,372.884c-0.021-1.572-0.464-2.828-1.328-3.766c-0.854-0.938-1.99-1.406-3.406-1.406c-1.604,0-2.891,0.453-3.858,1.358
			c-0.959,0.906-1.511,2.183-1.656,3.828L402.25,372.884z"/>
		<path id="path3356" inkscape:connector-curvature="0" fill="#00FF00" d="M410.765,386.166h1.094c1.459,0,2.406-0.226,2.844-0.672
			c0.447-0.447,0.672-1.416,0.672-2.906v-3.875c0-1.625,0.234-2.808,0.703-3.547c0.469-0.74,1.281-1.25,2.438-1.531
			c-1.155-0.26-1.969-0.76-2.438-1.5s-0.703-1.928-0.703-3.562v-3.875c0-1.479-0.225-2.443-0.672-2.891
			c-0.438-0.459-1.385-0.688-2.844-0.688h-1.094v-2.234h0.983c2.595,0,4.322,0.385,5.188,1.156c0.875,0.76,1.312,2.291,1.312,4.594
			v3.75c0,1.553,0.281,2.631,0.845,3.234c0.562,0.594,1.584,0.891,3.062,0.891h0.969v2.234h-0.969c-1.479,0-2.5,0.303-3.062,0.905
			c-0.562,0.603-0.845,1.693-0.845,3.267v3.733c0,2.304-0.438,3.838-1.312,4.609c-0.865,0.771-2.594,1.155-5.188,1.155h-0.983
			V386.166z"/>
	</g>
</g>
</svg>
