<?xml version="1.0" encoding="UTF-8" standalone="no"?><!DOCTYPE svg PUBLIC "-//W3C//DTD SVG 1.1//EN" "http://www.w3.org/Graphics/SVG/1.1/DTD/svg11.dtd"><svg width="100%" height="100%" viewBox="0 0 122 120" version="1.1" xmlns="http://www.w3.org/2000/svg" xmlns:xlink="http://www.w3.org/1999/xlink" xml:space="preserve" xmlns:serif="http://www.serif.com/" style="fill-rule:evenodd;clip-rule:evenodd;stroke-linejoin:round;stroke-miterlimit:1.41421;"><g><path d="M60.575,0.338c-33.347,0 -60.388,27.035 -60.388,60.388c0,26.68 17.303,49.316 41.297,57.301c3.018,0.559 4.126,-1.31 4.126,-2.905c0,-1.439 -0.056,-6.197 -0.082,-11.243c-16.8,3.653 -20.345,-7.125 -20.345,-7.125c-2.747,-6.979 -6.705,-8.836 -6.705,-8.836c-5.479,-3.748 0.413,-3.671 0.413,-3.671c6.064,0.426 9.257,6.224 9.257,6.224c5.386,9.231 14.127,6.562 17.573,5.019c0.543,-3.902 2.107,-6.567 3.834,-8.075c-13.413,-1.526 -27.513,-6.705 -27.513,-29.844c0,-6.592 2.359,-11.979 6.222,-16.208c-0.627,-1.522 -2.694,-7.664 0.586,-15.982c0,0 5.071,-1.622 16.61,6.191c4.817,-1.338 9.983,-2.009 15.115,-2.033c5.132,0.024 10.302,0.695 15.128,2.033c11.526,-7.813 16.59,-6.191 16.59,-6.191c3.287,8.318 1.22,14.46 0.593,15.982c3.872,4.229 6.214,9.616 6.214,16.208c0,23.195 -14.127,28.301 -27.574,29.796c2.166,1.874 4.096,5.549 4.096,11.183c0,8.08 -0.069,14.583 -0.069,16.572c0,1.608 1.086,3.491 4.147,2.898c23.982,-7.994 41.263,-30.622 41.263,-57.294c0,-33.353 -27.037,-60.388 -60.388,-60.388" style="fill:#fff;"/><path d="M23.059,87.042c-0.133,0.301 -0.605,0.391 -1.035,0.184c-0.439,-0.197 -0.684,-0.606 -0.542,-0.907c0.13,-0.308 0.602,-0.394 1.04,-0.188c0.438,0.197 0.688,0.61 0.537,0.911" style="fill:#fff;fill-rule:nonzero;"/><path d="M25.505,89.77c-0.288,0.267 -0.852,0.143 -1.233,-0.279c-0.396,-0.421 -0.469,-0.985 -0.177,-1.255c0.297,-0.267 0.843,-0.142 1.238,0.279c0.396,0.426 0.473,0.985 0.172,1.255" style="fill:#fff;fill-rule:nonzero;"/><path d="M27.886,93.247c-0.37,0.258 -0.976,0.017 -1.35,-0.52c-0.37,-0.538 -0.37,-1.182 0.009,-1.44c0.374,-0.258 0.971,-0.025 1.35,0.507c0.369,0.546 0.369,1.19 -0.009,1.453" style="fill:#fff;fill-rule:nonzero;"/><path d="M31.148,96.608c-0.331,0.365 -1.036,0.267 -1.552,-0.231c-0.528,-0.487 -0.675,-1.178 -0.344,-1.543c0.336,-0.366 1.045,-0.263 1.565,0.231c0.524,0.486 0.683,1.182 0.331,1.543" style="fill:#fff;fill-rule:nonzero;"/><path d="M35.648,98.559c-0.147,0.473 -0.825,0.687 -1.509,0.486c-0.683,-0.207 -1.13,-0.76 -0.992,-1.238c0.142,-0.477 0.824,-0.7 1.513,-0.485c0.682,0.206 1.13,0.756 0.988,1.237" style="fill:#fff;fill-rule:nonzero;"/><path d="M40.59,98.92c0.017,0.498 -0.563,0.911 -1.281,0.92c-0.722,0.017 -1.307,-0.387 -1.315,-0.877c0,-0.503 0.568,-0.911 1.289,-0.924c0.718,-0.014 1.307,0.387 1.307,0.881" style="fill:#fff;fill-rule:nonzero;"/><path d="M45.189,98.138c0.086,0.485 -0.413,0.984 -1.126,1.117c-0.701,0.129 -1.35,-0.172 -1.439,-0.653c-0.087,-0.498 0.42,-0.997 1.121,-1.126c0.714,-0.124 1.353,0.168 1.444,0.662" style="fill:#fff;fill-rule:nonzero;"/></g></svg>