<?xml version="1.0" encoding="UTF-8" standalone="no"?><!DOCTYPE svg PUBLIC "-//W3C//DTD SVG 1.1//EN" "http://www.w3.org/Graphics/SVG/1.1/DTD/svg11.dtd"><svg width="100%" height="100%" viewBox="0 0 171 41" version="1.1" xmlns="http://www.w3.org/2000/svg" xmlns:xlink="http://www.w3.org/1999/xlink" xml:space="preserve" xmlns:serif="http://www.serif.com/" style="fill-rule:evenodd;clip-rule:evenodd;stroke-linejoin:round;stroke-miterlimit:1.41421;"><g id="Layer-1" serif:id="Layer 1"><g id="text3336"><path id="path3340" d="M12.369,33.829l-1.562,0l-0.016,-4.703c-1.093,-0.021 -2.187,-0.146 -3.281,-0.375c-1.094,-0.24 -2.193,-0.594 -3.297,-1.062l0,-2.813c1.063,0.667 2.136,1.172 3.219,1.516c1.094,0.333 2.219,0.505 3.375,0.515l0,-7.125c-2.302,-0.375 -3.979,-1.01 -5.031,-1.906c-1.042,-0.896 -1.563,-2.125 -1.563,-3.687c0,-1.698 0.568,-3.037 1.703,-4.016c1.136,-0.979 2.766,-1.542 4.891,-1.688l0,-3.671l1.562,0l0,3.625c0.969,0.041 1.907,0.145 2.813,0.312c0.906,0.156 1.792,0.375 2.656,0.656l0,2.735c-0.864,-0.438 -1.755,-0.776 -2.672,-1.016c-0.906,-0.24 -1.838,-0.38 -2.797,-0.422l0,6.672c2.365,0.365 4.105,1.016 5.219,1.953c1.115,0.938 1.672,2.219 1.672,3.844c0,1.76 -0.594,3.151 -1.781,4.172c-1.177,1.01 -2.88,1.594 -5.11,1.75l0,4.734Zm-1.562,-16.734l0,-6.406c-1.208,0.135 -2.13,0.479 -2.766,1.031c-0.635,0.552 -0.953,1.286 -0.953,2.203c0,0.896 0.292,1.594 0.875,2.094c0.594,0.5 1.542,0.859 2.844,1.078Zm1.562,3l0,6.765c1.323,-0.177 2.318,-0.552 2.985,-1.125c0.677,-0.572 1.015,-1.328 1.015,-2.265c0,-0.917 -0.322,-1.646 -0.968,-2.188c-0.636,-0.541 -1.646,-0.937 -3.032,-1.187Z" style="fill:#0f0;fill-rule:nonzero;"/><path id="path3342" d="M38.291,32.095l0,2.25l-0.968,0c-2.594,0 -4.334,-0.386 -5.219,-1.156c-0.875,-0.771 -1.313,-2.308 -1.313,-4.61l0,-3.734c0,-1.573 -0.281,-2.662 -0.843,-3.266c-0.563,-0.604 -1.584,-0.906 -3.063,-0.906l-0.953,0l0,-2.234l0.953,0c1.49,0 2.51,-0.297 3.063,-0.891c0.562,-0.604 0.843,-1.682 0.843,-3.234l0,-3.75c0,-2.303 0.438,-3.834 1.313,-4.594c0.885,-0.771 2.625,-1.156 5.219,-1.156l0.968,0l0,2.234l-1.062,0c-1.469,0 -2.427,0.229 -2.875,0.687c-0.448,0.459 -0.672,1.422 -0.672,2.891l0,3.875c0,1.635 -0.24,2.823 -0.719,3.563c-0.469,0.739 -1.276,1.239 -2.422,1.5c1.157,0.281 1.969,0.791 2.438,1.531c0.469,0.739 0.703,1.922 0.703,3.547l0,3.875c0,1.468 0.224,2.432 0.672,2.89c0.448,0.459 1.406,0.688 2.875,0.688l1.062,0Z" style="fill:#0f0;fill-rule:nonzero;"/><path id="path3344" d="M56.416,12.142l0,2.718c-0.812,-0.416 -1.656,-0.729 -2.531,-0.937c-0.875,-0.208 -1.781,-0.313 -2.719,-0.313c-1.427,0 -2.5,0.219 -3.218,0.657c-0.709,0.437 -1.063,1.093 -1.063,1.968c0,0.667 0.255,1.193 0.766,1.579c0.51,0.375 1.536,0.734 3.078,1.078l0.984,0.218c2.042,0.438 3.49,1.058 4.344,1.86c0.865,0.791 1.297,1.901 1.297,3.328c0,1.625 -0.646,2.911 -1.938,3.859c-1.281,0.948 -3.047,1.422 -5.297,1.422c-0.937,0 -1.916,-0.094 -2.937,-0.281c-1.01,-0.177 -2.078,-0.448 -3.203,-0.813l0,-2.968c1.062,0.552 2.109,0.968 3.14,1.25c1.032,0.271 2.053,0.406 3.063,0.406c1.354,0 2.396,-0.229 3.125,-0.688c0.729,-0.468 1.094,-1.125 1.094,-1.968c0,-0.782 -0.266,-1.381 -0.797,-1.797c-0.521,-0.417 -1.672,-0.818 -3.453,-1.203l-1,-0.235c-1.782,-0.375 -3.068,-0.948 -3.86,-1.718c-0.791,-0.782 -1.187,-1.849 -1.187,-3.204c0,-1.645 0.583,-2.916 1.75,-3.812c1.166,-0.896 2.823,-1.344 4.969,-1.344c1.062,0 2.062,0.078 3,0.235c0.937,0.156 1.802,0.39 2.593,0.703Z" style="fill:#fff;fill-rule:nonzero;"/><path id="path3346" d="M68.729,13.642c-1.542,0 -2.761,0.604 -3.656,1.812c-0.896,1.198 -1.344,2.844 -1.344,4.938c0,2.093 0.443,3.744 1.328,4.953c0.896,1.198 2.12,1.797 3.672,1.797c1.531,0 2.745,-0.604 3.64,-1.813c0.896,-1.208 1.344,-2.854 1.344,-4.937c0,-2.073 -0.448,-3.714 -1.344,-4.922c-0.895,-1.219 -2.109,-1.828 -3.64,-1.828Zm0,-2.438c2.5,0 4.463,0.813 5.89,2.438c1.428,1.625 2.141,3.875 2.141,6.75c0,2.864 -0.713,5.114 -2.141,6.75c-1.427,1.625 -3.39,2.437 -5.89,2.437c-2.511,0 -4.479,-0.812 -5.906,-2.437c-1.417,-1.636 -2.125,-3.886 -2.125,-6.75c0,-2.875 0.708,-5.125 2.125,-6.75c1.427,-1.625 3.395,-2.438 5.906,-2.438Z" style="fill:#fff;fill-rule:nonzero;"/><path id="path3348" d="M81.213,22.22l0,-10.594l2.875,0l0,10.484c0,1.657 0.323,2.901 0.969,3.735c0.646,0.823 1.615,1.234 2.906,1.234c1.552,0 2.776,-0.495 3.672,-1.484c0.906,-0.99 1.359,-2.339 1.359,-4.047l0,-9.922l2.875,0l0,17.5l-2.875,0l0,-2.687c-0.697,1.062 -1.51,1.854 -2.437,2.375c-0.917,0.51 -1.984,0.765 -3.203,0.765c-2.011,0 -3.537,-0.625 -4.578,-1.875c-1.042,-1.25 -1.563,-3.078 -1.563,-5.484Z" style="fill:#fff;fill-rule:nonzero;"/><path id="path3350" d="M111.963,14.314c-0.323,-0.188 -0.677,-0.323 -1.062,-0.407c-0.375,-0.093 -0.792,-0.14 -1.25,-0.14c-1.625,0 -2.875,0.531 -3.75,1.593c-0.865,1.053 -1.297,2.568 -1.297,4.547l0,9.219l-2.891,0l0,-17.5l2.891,0l0,2.719c0.604,-1.063 1.39,-1.849 2.359,-2.36c0.969,-0.52 2.146,-0.781 3.531,-0.781c0.198,0 0.417,0.016 0.657,0.047c0.239,0.021 0.505,0.057 0.797,0.109l0.015,2.954Z" style="fill:#fff;fill-rule:nonzero;"/><path id="path3352" d="M126.948,12.298l0,2.687c-0.813,-0.447 -1.631,-0.781 -2.454,-1c-0.812,-0.229 -1.635,-0.343 -2.468,-0.343c-1.865,0 -3.313,0.593 -4.344,1.781c-1.031,1.177 -1.547,2.833 -1.547,4.969c0,2.135 0.516,3.797 1.547,4.984c1.031,1.177 2.479,1.766 4.344,1.766c0.833,0 1.656,-0.11 2.468,-0.328c0.823,-0.23 1.641,-0.568 2.454,-1.016l0,2.656c-0.803,0.375 -1.636,0.656 -2.5,0.844c-0.855,0.187 -1.766,0.281 -2.735,0.281c-2.635,0 -4.729,-0.828 -6.281,-2.484c-1.552,-1.656 -2.328,-3.891 -2.328,-6.703c0,-2.854 0.781,-5.099 2.344,-6.735c1.572,-1.635 3.724,-2.453 6.453,-2.453c0.885,0 1.75,0.094 2.593,0.281c0.844,0.178 1.662,0.448 2.454,0.813Z" style="fill:#fff;fill-rule:nonzero;"/><path id="path3354" d="M146.916,19.657l0,1.407l-13.218,0c0.125,1.979 0.718,3.489 1.781,4.531c1.073,1.031 2.562,1.547 4.469,1.547c1.104,0 2.171,-0.136 3.203,-0.407c1.041,-0.27 2.073,-0.677 3.093,-1.218l0,2.718c-1.031,0.438 -2.088,0.771 -3.171,1c-1.084,0.23 -2.183,0.344 -3.297,0.344c-2.792,0 -5.006,-0.812 -6.641,-2.437c-1.625,-1.625 -2.437,-3.823 -2.437,-6.594c0,-2.865 0.77,-5.135 2.312,-6.813c1.552,-1.687 3.641,-2.531 6.266,-2.531c2.354,0 4.213,0.761 5.578,2.281c1.375,1.511 2.062,3.568 2.062,6.172Zm-2.875,-0.843c-0.021,-1.573 -0.463,-2.829 -1.328,-3.766c-0.854,-0.938 -1.989,-1.406 -3.406,-1.406c-1.604,0 -2.891,0.453 -3.859,1.359c-0.959,0.906 -1.511,2.182 -1.657,3.828l10.25,-0.015Z" style="fill:#fff;fill-rule:nonzero;"/><path id="path3356" d="M152.557,32.095l1.094,0c1.458,0 2.406,-0.224 2.843,-0.672c0.448,-0.448 0.672,-1.417 0.672,-2.906l0,-3.875c0,-1.625 0.235,-2.808 0.703,-3.547c0.469,-0.74 1.282,-1.25 2.438,-1.531c-1.156,-0.261 -1.969,-0.761 -2.438,-1.5c-0.468,-0.74 -0.703,-1.928 -0.703,-3.563l0,-3.875c0,-1.479 -0.224,-2.443 -0.672,-2.891c-0.437,-0.458 -1.385,-0.687 -2.843,-0.687l-1.094,0l0,-2.234l0.984,0c2.594,0 4.323,0.385 5.188,1.156c0.875,0.76 1.312,2.291 1.312,4.594l0,3.75c0,1.552 0.282,2.63 0.844,3.234c0.563,0.594 1.583,0.891 3.063,0.891l0.968,0l0,2.234l-0.968,0c-1.48,0 -2.5,0.302 -3.063,0.906c-0.562,0.604 -0.844,1.693 -0.844,3.266l0,3.734c0,2.302 -0.437,3.839 -1.312,4.61c-0.865,0.77 -2.594,1.156 -5.188,1.156l-0.984,0l0,-2.25Z" style="fill:#0f0;fill-rule:nonzero;"/></g></g></svg>