<?xml version="1.0" encoding="UTF-8" standalone="no"?><!DOCTYPE svg PUBLIC "-//W3C//DTD SVG 1.1//EN" "http://www.w3.org/Graphics/SVG/1.1/DTD/svg11.dtd"><svg width="100%" height="100%" viewBox="0 0 105 105" version="1.1" xmlns="http://www.w3.org/2000/svg" xmlns:xlink="http://www.w3.org/1999/xlink" xml:space="preserve" xmlns:serif="http://www.serif.com/" style="fill-rule:evenodd;clip-rule:evenodd;stroke-linejoin:round;stroke-miterlimit:1.41421;"><path id="copyright" d="M52.291,0.08c7.125,0 13.769,1.289 19.934,3.867c6.164,2.579 11.8,6.422 16.91,11.532c5.109,5.109 8.929,10.734 11.461,16.875c2.531,6.14 3.797,12.82 3.797,20.039c0,7.125 -1.266,13.746 -3.797,19.863c-2.532,6.117 -6.352,11.73 -11.461,16.84c-5.11,5.109 -10.746,8.953 -16.91,11.531c-6.165,2.578 -12.809,3.867 -19.934,3.867c-7.125,0 -13.77,-1.289 -19.934,-3.867c-6.164,-2.578 -11.8,-6.422 -16.91,-11.531c-5.109,-5.11 -8.929,-10.723 -11.461,-16.84c-2.531,-6.117 -3.797,-12.738 -3.797,-19.863c0,-7.219 1.266,-13.899 3.797,-20.039c2.532,-6.141 6.352,-11.766 11.461,-16.875c5.11,-5.11 10.746,-8.953 16.91,-11.532c6.164,-2.578 12.809,-3.867 19.934,-3.867Zm0,7.242c-6.141,0 -11.859,1.102 -17.156,3.305c-5.297,2.203 -10.149,5.508 -14.555,9.914c-4.406,4.406 -7.734,9.293 -9.984,14.66c-2.25,5.367 -3.375,11.098 -3.375,17.192c0,6.047 1.125,11.73 3.375,17.05c2.25,5.321 5.578,10.184 9.984,14.59c4.406,4.407 9.258,7.723 14.555,9.95c5.297,2.226 11.015,3.339 17.156,3.339c6.187,0 11.941,-1.113 17.262,-3.339c5.32,-2.227 10.183,-5.543 14.59,-9.95c4.359,-4.359 7.628,-9.187 9.808,-14.484c2.18,-5.297 3.27,-11.016 3.27,-17.156c0,-6.235 -1.102,-12.012 -3.305,-17.332c-2.203,-5.321 -5.461,-10.16 -9.773,-14.52c-4.407,-4.406 -9.27,-7.711 -14.59,-9.914c-5.321,-2.203 -11.075,-3.305 -17.262,-3.305Zm21.023,17.227l0,9.07c-3.093,-1.547 -6.164,-2.695 -9.211,-3.445c-3.046,-0.75 -6.117,-1.125 -9.21,-1.125c-6.985,0 -12.434,2.051 -16.348,6.152c-3.914,4.102 -5.871,9.832 -5.871,17.192c0,7.453 2.004,13.218 6.011,17.297c4.008,4.078 9.645,6.117 16.911,6.117c3,0 5.929,-0.364 8.789,-1.09c2.859,-0.727 5.836,-1.887 8.929,-3.481l0,8.93c-3.14,1.36 -6.316,2.367 -9.527,3.024c-3.211,0.656 -6.457,0.984 -9.738,0.984c-10.125,0 -18.129,-2.859 -24.012,-8.578c-5.883,-5.719 -8.824,-13.453 -8.824,-23.203c0,-9.797 2.941,-17.532 8.824,-23.203c5.883,-5.672 13.887,-8.508 24.012,-8.508c3.422,0 6.726,0.328 9.914,0.984c3.187,0.656 6.305,1.617 9.351,2.883Z" style="fill-rule:nonzero;"/></svg>