<?xml version="1.0" encoding="UTF-8" standalone="no"?><!DOCTYPE svg PUBLIC "-//W3C//DTD SVG 1.1//EN" "http://www.w3.org/Graphics/SVG/1.1/DTD/svg11.dtd"><svg width="100%" height="100%" viewBox="0 0 68 131" version="1.1" xmlns="http://www.w3.org/2000/svg" xmlns:xlink="http://www.w3.org/1999/xlink" xml:space="preserve" xmlns:serif="http://www.serif.com/" style="fill-rule:evenodd;clip-rule:evenodd;stroke-linejoin:round;stroke-miterlimit:1.41421;"><path id="dollar" d="M36.719,130.772l-7.031,0l-0.07,-21.164c-4.922,-0.093 -9.844,-0.668 -14.766,-1.722c-4.922,-1.055 -9.867,-2.637 -14.836,-4.746l0,-12.657c4.781,3 9.621,5.262 14.52,6.785c4.898,1.524 9.949,2.309 15.152,2.356l0,-32.063c-10.359,-1.687 -17.894,-4.546 -22.605,-8.578c-4.711,-4.031 -7.067,-9.562 -7.067,-16.593c0,-7.641 2.555,-13.664 7.664,-18.071c5.11,-4.406 12.446,-6.937 22.008,-7.593l0,-16.524l7.031,0l0,16.313c4.36,0.187 8.578,0.644 12.657,1.371c4.078,0.726 8.062,1.722 11.953,2.988l0,12.305c-3.891,-1.969 -7.887,-3.493 -11.989,-4.571c-4.101,-1.078 -8.308,-1.711 -12.621,-1.898l0,30.023c10.641,1.641 18.469,4.571 23.485,8.789c5.015,4.219 7.523,9.985 7.523,17.297c0,7.922 -2.66,14.168 -7.98,18.739c-5.321,4.57 -12.996,7.207 -23.028,7.91l0,21.304Zm-7.031,-75.304l0,-28.828c-5.437,0.609 -9.586,2.156 -12.445,4.64c-2.86,2.485 -4.289,5.789 -4.289,9.914c0,4.032 1.324,7.172 3.972,9.422c2.649,2.25 6.903,3.867 12.762,4.852Zm7.031,13.5l0,30.445c5.953,-0.797 10.442,-2.484 13.465,-5.062c3.024,-2.579 4.535,-5.977 4.535,-10.196c0,-4.125 -1.441,-7.406 -4.324,-9.844c-2.883,-2.437 -7.441,-4.218 -13.676,-5.343Z" style="fill-rule:nonzero;"/></svg>