<?xml version="1.0" encoding="UTF-8" standalone="no"?><!DOCTYPE svg PUBLIC "-//W3C//DTD SVG 1.1//EN" "http://www.w3.org/Graphics/SVG/1.1/DTD/svg11.dtd"><svg width="100%" height="100%" viewBox="0 0 57 108" version="1.1" xmlns="http://www.w3.org/2000/svg" xmlns:xlink="http://www.w3.org/1999/xlink" xml:space="preserve" xmlns:serif="http://www.serif.com/" style="fill-rule:evenodd;clip-rule:evenodd;stroke-linejoin:round;stroke-miterlimit:1.41421;"><path id="question" d="M17.227,89.065l14.274,0l0,17.86l-14.274,0l0,-17.86Zm13.852,-10.336l-13.43,0l0,-10.828c0,-4.734 0.656,-8.625 1.969,-11.672c1.312,-3.046 4.078,-6.586 8.297,-10.617l6.328,-6.258c2.672,-2.484 4.605,-4.828 5.8,-7.031c1.196,-2.203 1.793,-4.453 1.793,-6.75c0,-4.172 -1.535,-7.547 -4.605,-10.125c-3.07,-2.578 -7.137,-3.867 -12.199,-3.867c-3.703,0 -7.653,0.82 -11.848,2.461c-4.195,1.641 -8.566,4.031 -13.113,7.172l0,-13.219c4.406,-2.672 8.871,-4.664 13.394,-5.977c4.524,-1.312 9.2,-1.968 14.028,-1.968c8.625,0 15.55,2.273 20.777,6.82c5.227,4.547 7.84,10.547 7.84,18c0,3.563 -0.844,6.949 -2.531,10.16c-1.688,3.211 -4.641,6.832 -8.86,10.863l-6.187,6.047c-2.203,2.203 -3.762,3.926 -4.676,5.168c-0.914,1.243 -1.559,2.45 -1.934,3.621c-0.281,0.985 -0.492,2.18 -0.632,3.586c-0.141,1.407 -0.211,3.328 -0.211,5.766l0,8.648Z" style="fill:#f5f5f5;fill-rule:nonzero;"/></svg>